G04 #@! TF.GenerationSoftware,KiCad,Pcbnew,10.0.1*
G04 #@! TF.CreationDate,2026-06-01T19:06:16+02:00*
G04 #@! TF.ProjectId,MicroPicoDriveCartridge,4d696372-6f50-4696-936f-447269766543,rev?*
G04 #@! TF.SameCoordinates,Original*
G04 #@! TF.FileFunction,Legend,Bot*
G04 #@! TF.FilePolarity,Positive*
%FSLAX46Y46*%
G04 Gerber Fmt 4.6, Leading zero omitted, Abs format (unit mm)*
G04 Created by KiCad (PCBNEW 10.0.1) date 2026-06-01 19:06:16*
%MOMM*%
%LPD*%
G01*
G04 APERTURE LIST*
G04 Aperture macros list*
%AMRoundRect*
0 Rectangle with rounded corners*
0 $1 Rounding radius*
0 $2 $3 $4 $5 $6 $7 $8 $9 X,Y pos of 4 corners*
0 Add a 4 corners polygon primitive as box body*
4,1,4,$2,$3,$4,$5,$6,$7,$8,$9,$2,$3,0*
0 Add four circle primitives for the rounded corners*
1,1,$1+$1,$2,$3*
1,1,$1+$1,$4,$5*
1,1,$1+$1,$6,$7*
1,1,$1+$1,$8,$9*
0 Add four rect primitives between the rounded corners*
20,1,$1+$1,$2,$3,$4,$5,0*
20,1,$1+$1,$4,$5,$6,$7,0*
20,1,$1+$1,$6,$7,$8,$9,0*
20,1,$1+$1,$8,$9,$2,$3,0*%
G04 Aperture macros list end*
%ADD10C,0.150000*%
%ADD11C,0.300000*%
%ADD12C,0.000000*%
%ADD13C,0.120000*%
%ADD14C,1.700000*%
%ADD15R,1.700000X1.700000*%
%ADD16R,1.400000X0.800000*%
%ADD17R,1.500000X1.500000*%
%ADD18R,1.500000X1.300000*%
%ADD19R,1.500000X0.800000*%
%ADD20R,1.550000X1.000000*%
%ADD21R,1.000000X1.450000*%
%ADD22R,1.750000X0.700000*%
%ADD23RoundRect,0.500000X-0.500000X-3.500000X0.500000X-3.500000X0.500000X3.500000X-0.500000X3.500000X0*%
G04 APERTURE END LIST*
D10*
X155237506Y-100850827D02*
X155285125Y-100803208D01*
X155285125Y-100803208D02*
X155380363Y-100660351D01*
X155380363Y-100660351D02*
X155427982Y-100565113D01*
X155427982Y-100565113D02*
X155475601Y-100422256D01*
X155475601Y-100422256D02*
X155523220Y-100184160D01*
X155523220Y-100184160D02*
X155523220Y-99993684D01*
X155523220Y-99993684D02*
X155475601Y-99755589D01*
X155475601Y-99755589D02*
X155427982Y-99612732D01*
X155427982Y-99612732D02*
X155380363Y-99517494D01*
X155380363Y-99517494D02*
X155285125Y-99374636D01*
X155285125Y-99374636D02*
X155237506Y-99327017D01*
X154427982Y-100422256D02*
X154523220Y-100469875D01*
X154523220Y-100469875D02*
X154713696Y-100469875D01*
X154713696Y-100469875D02*
X154808934Y-100422256D01*
X154808934Y-100422256D02*
X154856553Y-100374636D01*
X154856553Y-100374636D02*
X154904172Y-100279398D01*
X154904172Y-100279398D02*
X154904172Y-99993684D01*
X154904172Y-99993684D02*
X154856553Y-99898446D01*
X154856553Y-99898446D02*
X154808934Y-99850827D01*
X154808934Y-99850827D02*
X154713696Y-99803208D01*
X154713696Y-99803208D02*
X154523220Y-99803208D01*
X154523220Y-99803208D02*
X154427982Y-99850827D01*
X154094648Y-100850827D02*
X154047029Y-100803208D01*
X154047029Y-100803208D02*
X153951791Y-100660351D01*
X153951791Y-100660351D02*
X153904172Y-100565113D01*
X153904172Y-100565113D02*
X153856553Y-100422256D01*
X153856553Y-100422256D02*
X153808934Y-100184160D01*
X153808934Y-100184160D02*
X153808934Y-99993684D01*
X153808934Y-99993684D02*
X153856553Y-99755589D01*
X153856553Y-99755589D02*
X153904172Y-99612732D01*
X153904172Y-99612732D02*
X153951791Y-99517494D01*
X153951791Y-99517494D02*
X154047029Y-99374636D01*
X154047029Y-99374636D02*
X154094648Y-99327017D01*
X152618457Y-99565113D02*
X152570838Y-99517494D01*
X152570838Y-99517494D02*
X152475600Y-99469875D01*
X152475600Y-99469875D02*
X152237505Y-99469875D01*
X152237505Y-99469875D02*
X152142267Y-99517494D01*
X152142267Y-99517494D02*
X152094648Y-99565113D01*
X152094648Y-99565113D02*
X152047029Y-99660351D01*
X152047029Y-99660351D02*
X152047029Y-99755589D01*
X152047029Y-99755589D02*
X152094648Y-99898446D01*
X152094648Y-99898446D02*
X152666076Y-100469875D01*
X152666076Y-100469875D02*
X152047029Y-100469875D01*
X151427981Y-99469875D02*
X151332743Y-99469875D01*
X151332743Y-99469875D02*
X151237505Y-99517494D01*
X151237505Y-99517494D02*
X151189886Y-99565113D01*
X151189886Y-99565113D02*
X151142267Y-99660351D01*
X151142267Y-99660351D02*
X151094648Y-99850827D01*
X151094648Y-99850827D02*
X151094648Y-100088922D01*
X151094648Y-100088922D02*
X151142267Y-100279398D01*
X151142267Y-100279398D02*
X151189886Y-100374636D01*
X151189886Y-100374636D02*
X151237505Y-100422256D01*
X151237505Y-100422256D02*
X151332743Y-100469875D01*
X151332743Y-100469875D02*
X151427981Y-100469875D01*
X151427981Y-100469875D02*
X151523219Y-100422256D01*
X151523219Y-100422256D02*
X151570838Y-100374636D01*
X151570838Y-100374636D02*
X151618457Y-100279398D01*
X151618457Y-100279398D02*
X151666076Y-100088922D01*
X151666076Y-100088922D02*
X151666076Y-99850827D01*
X151666076Y-99850827D02*
X151618457Y-99660351D01*
X151618457Y-99660351D02*
X151570838Y-99565113D01*
X151570838Y-99565113D02*
X151523219Y-99517494D01*
X151523219Y-99517494D02*
X151427981Y-99469875D01*
X150713695Y-99565113D02*
X150666076Y-99517494D01*
X150666076Y-99517494D02*
X150570838Y-99469875D01*
X150570838Y-99469875D02*
X150332743Y-99469875D01*
X150332743Y-99469875D02*
X150237505Y-99517494D01*
X150237505Y-99517494D02*
X150189886Y-99565113D01*
X150189886Y-99565113D02*
X150142267Y-99660351D01*
X150142267Y-99660351D02*
X150142267Y-99755589D01*
X150142267Y-99755589D02*
X150189886Y-99898446D01*
X150189886Y-99898446D02*
X150761314Y-100469875D01*
X150761314Y-100469875D02*
X150142267Y-100469875D01*
X149285124Y-99469875D02*
X149475600Y-99469875D01*
X149475600Y-99469875D02*
X149570838Y-99517494D01*
X149570838Y-99517494D02*
X149618457Y-99565113D01*
X149618457Y-99565113D02*
X149713695Y-99707970D01*
X149713695Y-99707970D02*
X149761314Y-99898446D01*
X149761314Y-99898446D02*
X149761314Y-100279398D01*
X149761314Y-100279398D02*
X149713695Y-100374636D01*
X149713695Y-100374636D02*
X149666076Y-100422256D01*
X149666076Y-100422256D02*
X149570838Y-100469875D01*
X149570838Y-100469875D02*
X149380362Y-100469875D01*
X149380362Y-100469875D02*
X149285124Y-100422256D01*
X149285124Y-100422256D02*
X149237505Y-100374636D01*
X149237505Y-100374636D02*
X149189886Y-100279398D01*
X149189886Y-100279398D02*
X149189886Y-100041303D01*
X149189886Y-100041303D02*
X149237505Y-99946065D01*
X149237505Y-99946065D02*
X149285124Y-99898446D01*
X149285124Y-99898446D02*
X149380362Y-99850827D01*
X149380362Y-99850827D02*
X149570838Y-99850827D01*
X149570838Y-99850827D02*
X149666076Y-99898446D01*
X149666076Y-99898446D02*
X149713695Y-99946065D01*
X149713695Y-99946065D02*
X149761314Y-100041303D01*
X148047028Y-100184160D02*
X147570838Y-100184160D01*
X148142266Y-100469875D02*
X147808933Y-99469875D01*
X147808933Y-99469875D02*
X147475600Y-100469875D01*
X147142266Y-100469875D02*
X147142266Y-99803208D01*
X147142266Y-99993684D02*
X147094647Y-99898446D01*
X147094647Y-99898446D02*
X147047028Y-99850827D01*
X147047028Y-99850827D02*
X146951790Y-99803208D01*
X146951790Y-99803208D02*
X146856552Y-99803208D01*
X146380361Y-100469875D02*
X146475599Y-100422256D01*
X146475599Y-100422256D02*
X146523218Y-100327017D01*
X146523218Y-100327017D02*
X146523218Y-99469875D01*
X145618456Y-100422256D02*
X145713694Y-100469875D01*
X145713694Y-100469875D02*
X145904170Y-100469875D01*
X145904170Y-100469875D02*
X145999408Y-100422256D01*
X145999408Y-100422256D02*
X146047027Y-100327017D01*
X146047027Y-100327017D02*
X146047027Y-99946065D01*
X146047027Y-99946065D02*
X145999408Y-99850827D01*
X145999408Y-99850827D02*
X145904170Y-99803208D01*
X145904170Y-99803208D02*
X145713694Y-99803208D01*
X145713694Y-99803208D02*
X145618456Y-99850827D01*
X145618456Y-99850827D02*
X145570837Y-99946065D01*
X145570837Y-99946065D02*
X145570837Y-100041303D01*
X145570837Y-100041303D02*
X146047027Y-100136541D01*
X145237503Y-99803208D02*
X144999408Y-100469875D01*
X144761313Y-99803208D02*
X144999408Y-100469875D01*
X144999408Y-100469875D02*
X145094646Y-100707970D01*
X145094646Y-100707970D02*
X145142265Y-100755589D01*
X145142265Y-100755589D02*
X145237503Y-100803208D01*
X144094646Y-99469875D02*
X144094646Y-100184160D01*
X144094646Y-100184160D02*
X144142265Y-100327017D01*
X144142265Y-100327017D02*
X144237503Y-100422256D01*
X144237503Y-100422256D02*
X144380360Y-100469875D01*
X144380360Y-100469875D02*
X144475598Y-100469875D01*
X143618455Y-100469875D02*
X143618455Y-99803208D01*
X143618455Y-99993684D02*
X143570836Y-99898446D01*
X143570836Y-99898446D02*
X143523217Y-99850827D01*
X143523217Y-99850827D02*
X143427979Y-99803208D01*
X143427979Y-99803208D02*
X143332741Y-99803208D01*
X155237506Y-102460771D02*
X155285125Y-102413152D01*
X155285125Y-102413152D02*
X155380363Y-102270295D01*
X155380363Y-102270295D02*
X155427982Y-102175057D01*
X155427982Y-102175057D02*
X155475601Y-102032200D01*
X155475601Y-102032200D02*
X155523220Y-101794104D01*
X155523220Y-101794104D02*
X155523220Y-101603628D01*
X155523220Y-101603628D02*
X155475601Y-101365533D01*
X155475601Y-101365533D02*
X155427982Y-101222676D01*
X155427982Y-101222676D02*
X155380363Y-101127438D01*
X155380363Y-101127438D02*
X155285125Y-100984580D01*
X155285125Y-100984580D02*
X155237506Y-100936961D01*
X154427982Y-102032200D02*
X154523220Y-102079819D01*
X154523220Y-102079819D02*
X154713696Y-102079819D01*
X154713696Y-102079819D02*
X154808934Y-102032200D01*
X154808934Y-102032200D02*
X154856553Y-101984580D01*
X154856553Y-101984580D02*
X154904172Y-101889342D01*
X154904172Y-101889342D02*
X154904172Y-101603628D01*
X154904172Y-101603628D02*
X154856553Y-101508390D01*
X154856553Y-101508390D02*
X154808934Y-101460771D01*
X154808934Y-101460771D02*
X154713696Y-101413152D01*
X154713696Y-101413152D02*
X154523220Y-101413152D01*
X154523220Y-101413152D02*
X154427982Y-101460771D01*
X154094648Y-102460771D02*
X154047029Y-102413152D01*
X154047029Y-102413152D02*
X153951791Y-102270295D01*
X153951791Y-102270295D02*
X153904172Y-102175057D01*
X153904172Y-102175057D02*
X153856553Y-102032200D01*
X153856553Y-102032200D02*
X153808934Y-101794104D01*
X153808934Y-101794104D02*
X153808934Y-101603628D01*
X153808934Y-101603628D02*
X153856553Y-101365533D01*
X153856553Y-101365533D02*
X153904172Y-101222676D01*
X153904172Y-101222676D02*
X153951791Y-101127438D01*
X153951791Y-101127438D02*
X154047029Y-100984580D01*
X154047029Y-100984580D02*
X154094648Y-100936961D01*
X152618457Y-101175057D02*
X152570838Y-101127438D01*
X152570838Y-101127438D02*
X152475600Y-101079819D01*
X152475600Y-101079819D02*
X152237505Y-101079819D01*
X152237505Y-101079819D02*
X152142267Y-101127438D01*
X152142267Y-101127438D02*
X152094648Y-101175057D01*
X152094648Y-101175057D02*
X152047029Y-101270295D01*
X152047029Y-101270295D02*
X152047029Y-101365533D01*
X152047029Y-101365533D02*
X152094648Y-101508390D01*
X152094648Y-101508390D02*
X152666076Y-102079819D01*
X152666076Y-102079819D02*
X152047029Y-102079819D01*
X151427981Y-101079819D02*
X151332743Y-101079819D01*
X151332743Y-101079819D02*
X151237505Y-101127438D01*
X151237505Y-101127438D02*
X151189886Y-101175057D01*
X151189886Y-101175057D02*
X151142267Y-101270295D01*
X151142267Y-101270295D02*
X151094648Y-101460771D01*
X151094648Y-101460771D02*
X151094648Y-101698866D01*
X151094648Y-101698866D02*
X151142267Y-101889342D01*
X151142267Y-101889342D02*
X151189886Y-101984580D01*
X151189886Y-101984580D02*
X151237505Y-102032200D01*
X151237505Y-102032200D02*
X151332743Y-102079819D01*
X151332743Y-102079819D02*
X151427981Y-102079819D01*
X151427981Y-102079819D02*
X151523219Y-102032200D01*
X151523219Y-102032200D02*
X151570838Y-101984580D01*
X151570838Y-101984580D02*
X151618457Y-101889342D01*
X151618457Y-101889342D02*
X151666076Y-101698866D01*
X151666076Y-101698866D02*
X151666076Y-101460771D01*
X151666076Y-101460771D02*
X151618457Y-101270295D01*
X151618457Y-101270295D02*
X151570838Y-101175057D01*
X151570838Y-101175057D02*
X151523219Y-101127438D01*
X151523219Y-101127438D02*
X151427981Y-101079819D01*
X150713695Y-101175057D02*
X150666076Y-101127438D01*
X150666076Y-101127438D02*
X150570838Y-101079819D01*
X150570838Y-101079819D02*
X150332743Y-101079819D01*
X150332743Y-101079819D02*
X150237505Y-101127438D01*
X150237505Y-101127438D02*
X150189886Y-101175057D01*
X150189886Y-101175057D02*
X150142267Y-101270295D01*
X150142267Y-101270295D02*
X150142267Y-101365533D01*
X150142267Y-101365533D02*
X150189886Y-101508390D01*
X150189886Y-101508390D02*
X150761314Y-102079819D01*
X150761314Y-102079819D02*
X150142267Y-102079819D01*
X149808933Y-101079819D02*
X149189886Y-101079819D01*
X149189886Y-101079819D02*
X149523219Y-101460771D01*
X149523219Y-101460771D02*
X149380362Y-101460771D01*
X149380362Y-101460771D02*
X149285124Y-101508390D01*
X149285124Y-101508390D02*
X149237505Y-101556009D01*
X149237505Y-101556009D02*
X149189886Y-101651247D01*
X149189886Y-101651247D02*
X149189886Y-101889342D01*
X149189886Y-101889342D02*
X149237505Y-101984580D01*
X149237505Y-101984580D02*
X149285124Y-102032200D01*
X149285124Y-102032200D02*
X149380362Y-102079819D01*
X149380362Y-102079819D02*
X149666076Y-102079819D01*
X149666076Y-102079819D02*
X149761314Y-102032200D01*
X149761314Y-102032200D02*
X149808933Y-101984580D01*
X147999409Y-102079819D02*
X147999409Y-101079819D01*
X147999409Y-101079819D02*
X147761314Y-101079819D01*
X147761314Y-101079819D02*
X147618457Y-101127438D01*
X147618457Y-101127438D02*
X147523219Y-101222676D01*
X147523219Y-101222676D02*
X147475600Y-101317914D01*
X147475600Y-101317914D02*
X147427981Y-101508390D01*
X147427981Y-101508390D02*
X147427981Y-101651247D01*
X147427981Y-101651247D02*
X147475600Y-101841723D01*
X147475600Y-101841723D02*
X147523219Y-101936961D01*
X147523219Y-101936961D02*
X147618457Y-102032200D01*
X147618457Y-102032200D02*
X147761314Y-102079819D01*
X147761314Y-102079819D02*
X147999409Y-102079819D01*
X146999409Y-102079819D02*
X146999409Y-101413152D01*
X146999409Y-101603628D02*
X146951790Y-101508390D01*
X146951790Y-101508390D02*
X146904171Y-101460771D01*
X146904171Y-101460771D02*
X146808933Y-101413152D01*
X146808933Y-101413152D02*
X146713695Y-101413152D01*
X146380361Y-101984580D02*
X146332742Y-102032200D01*
X146332742Y-102032200D02*
X146380361Y-102079819D01*
X146380361Y-102079819D02*
X146427980Y-102032200D01*
X146427980Y-102032200D02*
X146380361Y-101984580D01*
X146380361Y-101984580D02*
X146380361Y-102079819D01*
X144618457Y-101127438D02*
X144713695Y-101079819D01*
X144713695Y-101079819D02*
X144856552Y-101079819D01*
X144856552Y-101079819D02*
X144999409Y-101127438D01*
X144999409Y-101127438D02*
X145094647Y-101222676D01*
X145094647Y-101222676D02*
X145142266Y-101317914D01*
X145142266Y-101317914D02*
X145189885Y-101508390D01*
X145189885Y-101508390D02*
X145189885Y-101651247D01*
X145189885Y-101651247D02*
X145142266Y-101841723D01*
X145142266Y-101841723D02*
X145094647Y-101936961D01*
X145094647Y-101936961D02*
X144999409Y-102032200D01*
X144999409Y-102032200D02*
X144856552Y-102079819D01*
X144856552Y-102079819D02*
X144761314Y-102079819D01*
X144761314Y-102079819D02*
X144618457Y-102032200D01*
X144618457Y-102032200D02*
X144570838Y-101984580D01*
X144570838Y-101984580D02*
X144570838Y-101651247D01*
X144570838Y-101651247D02*
X144761314Y-101651247D01*
X143713695Y-101413152D02*
X143713695Y-102079819D01*
X144142266Y-101413152D02*
X144142266Y-101936961D01*
X144142266Y-101936961D02*
X144094647Y-102032200D01*
X144094647Y-102032200D02*
X143999409Y-102079819D01*
X143999409Y-102079819D02*
X143856552Y-102079819D01*
X143856552Y-102079819D02*
X143761314Y-102032200D01*
X143761314Y-102032200D02*
X143713695Y-101984580D01*
X143285123Y-102032200D02*
X143189885Y-102079819D01*
X143189885Y-102079819D02*
X142999409Y-102079819D01*
X142999409Y-102079819D02*
X142904171Y-102032200D01*
X142904171Y-102032200D02*
X142856552Y-101936961D01*
X142856552Y-101936961D02*
X142856552Y-101889342D01*
X142856552Y-101889342D02*
X142904171Y-101794104D01*
X142904171Y-101794104D02*
X142999409Y-101746485D01*
X142999409Y-101746485D02*
X143142266Y-101746485D01*
X143142266Y-101746485D02*
X143237504Y-101698866D01*
X143237504Y-101698866D02*
X143285123Y-101603628D01*
X143285123Y-101603628D02*
X143285123Y-101556009D01*
X143285123Y-101556009D02*
X143237504Y-101460771D01*
X143237504Y-101460771D02*
X143142266Y-101413152D01*
X143142266Y-101413152D02*
X142999409Y-101413152D01*
X142999409Y-101413152D02*
X142904171Y-101460771D01*
X142427980Y-102079819D02*
X142427980Y-101413152D01*
X142427980Y-101508390D02*
X142380361Y-101460771D01*
X142380361Y-101460771D02*
X142285123Y-101413152D01*
X142285123Y-101413152D02*
X142142266Y-101413152D01*
X142142266Y-101413152D02*
X142047028Y-101460771D01*
X142047028Y-101460771D02*
X141999409Y-101556009D01*
X141999409Y-101556009D02*
X141999409Y-102079819D01*
X141999409Y-101556009D02*
X141951790Y-101460771D01*
X141951790Y-101460771D02*
X141856552Y-101413152D01*
X141856552Y-101413152D02*
X141713695Y-101413152D01*
X141713695Y-101413152D02*
X141618456Y-101460771D01*
X141618456Y-101460771D02*
X141570837Y-101556009D01*
X141570837Y-101556009D02*
X141570837Y-102079819D01*
X140666076Y-102079819D02*
X140666076Y-101556009D01*
X140666076Y-101556009D02*
X140713695Y-101460771D01*
X140713695Y-101460771D02*
X140808933Y-101413152D01*
X140808933Y-101413152D02*
X140999409Y-101413152D01*
X140999409Y-101413152D02*
X141094647Y-101460771D01*
X140666076Y-102032200D02*
X140761314Y-102079819D01*
X140761314Y-102079819D02*
X140999409Y-102079819D01*
X140999409Y-102079819D02*
X141094647Y-102032200D01*
X141094647Y-102032200D02*
X141142266Y-101936961D01*
X141142266Y-101936961D02*
X141142266Y-101841723D01*
X141142266Y-101841723D02*
X141094647Y-101746485D01*
X141094647Y-101746485D02*
X140999409Y-101698866D01*
X140999409Y-101698866D02*
X140761314Y-101698866D01*
X140761314Y-101698866D02*
X140666076Y-101651247D01*
X140189885Y-101413152D02*
X140189885Y-102079819D01*
X140189885Y-101508390D02*
X140142266Y-101460771D01*
X140142266Y-101460771D02*
X140047028Y-101413152D01*
X140047028Y-101413152D02*
X139904171Y-101413152D01*
X139904171Y-101413152D02*
X139808933Y-101460771D01*
X139808933Y-101460771D02*
X139761314Y-101556009D01*
X139761314Y-101556009D02*
X139761314Y-102079819D01*
D11*
X154142554Y-89320884D02*
X154285412Y-89249455D01*
X154285412Y-89249455D02*
X154499697Y-89249455D01*
X154499697Y-89249455D02*
X154713983Y-89320884D01*
X154713983Y-89320884D02*
X154856840Y-89463741D01*
X154856840Y-89463741D02*
X154928269Y-89606598D01*
X154928269Y-89606598D02*
X154999697Y-89892312D01*
X154999697Y-89892312D02*
X154999697Y-90106598D01*
X154999697Y-90106598D02*
X154928269Y-90392312D01*
X154928269Y-90392312D02*
X154856840Y-90535169D01*
X154856840Y-90535169D02*
X154713983Y-90678027D01*
X154713983Y-90678027D02*
X154499697Y-90749455D01*
X154499697Y-90749455D02*
X154356840Y-90749455D01*
X154356840Y-90749455D02*
X154142554Y-90678027D01*
X154142554Y-90678027D02*
X154071126Y-90606598D01*
X154071126Y-90606598D02*
X154071126Y-90106598D01*
X154071126Y-90106598D02*
X154356840Y-90106598D01*
X153213983Y-89249455D02*
X153213983Y-89606598D01*
X153571126Y-89463741D02*
X153213983Y-89606598D01*
X153213983Y-89606598D02*
X152856840Y-89463741D01*
X153428269Y-89892312D02*
X153213983Y-89606598D01*
X153213983Y-89606598D02*
X152999697Y-89892312D01*
X152071126Y-89249455D02*
X152071126Y-89606598D01*
X152428269Y-89463741D02*
X152071126Y-89606598D01*
X152071126Y-89606598D02*
X151713983Y-89463741D01*
X152285412Y-89892312D02*
X152071126Y-89606598D01*
X152071126Y-89606598D02*
X151856840Y-89892312D01*
X150928269Y-89249455D02*
X150928269Y-89606598D01*
X151285412Y-89463741D02*
X150928269Y-89606598D01*
X150928269Y-89606598D02*
X150571126Y-89463741D01*
X151142555Y-89892312D02*
X150928269Y-89606598D01*
X150928269Y-89606598D02*
X150713983Y-89892312D01*
D12*
G36*
X151290494Y-89365499D02*
G01*
X151354944Y-89430592D01*
X151383615Y-89592541D01*
X151390141Y-89892254D01*
X151386853Y-90129932D01*
X151365155Y-90323282D01*
X151311172Y-90409293D01*
X151211268Y-90428873D01*
X151132042Y-90419008D01*
X151067592Y-90353916D01*
X151038921Y-90191967D01*
X151032395Y-89892254D01*
X151035683Y-89654575D01*
X151057381Y-89461225D01*
X151111364Y-89375214D01*
X151211268Y-89355634D01*
X151290494Y-89365499D01*
G37*
G36*
X153208271Y-87503660D02*
G01*
X153357747Y-87566902D01*
X153473379Y-87596299D01*
X153536620Y-87745775D01*
X153507223Y-87861407D01*
X153357747Y-87924648D01*
X153254502Y-87944902D01*
X153193874Y-88048344D01*
X153178874Y-88282395D01*
X153178874Y-88640141D01*
X152642254Y-88640141D01*
X152105634Y-88640141D01*
X152105634Y-88282395D01*
X152095507Y-88075904D01*
X152043786Y-87954648D01*
X151926761Y-87924648D01*
X151811129Y-87895251D01*
X151747888Y-87745775D01*
X151718491Y-87630143D01*
X151569014Y-87566902D01*
X151489788Y-87557036D01*
X151425338Y-87491944D01*
X151406942Y-87388028D01*
X152463381Y-87388028D01*
X152492778Y-87503660D01*
X152642254Y-87566902D01*
X152757886Y-87537504D01*
X152821127Y-87388028D01*
X152791730Y-87272396D01*
X152642254Y-87209155D01*
X152526622Y-87238552D01*
X152463381Y-87388028D01*
X151406942Y-87388028D01*
X151396668Y-87329995D01*
X151390141Y-87030282D01*
X151393430Y-86792603D01*
X151415127Y-86599253D01*
X151469110Y-86513242D01*
X151569014Y-86493662D01*
X151684646Y-86464265D01*
X151747888Y-86314789D01*
X151750521Y-86267628D01*
X151786442Y-86196511D01*
X151893239Y-86156850D01*
X152106891Y-86139650D01*
X152463381Y-86135916D01*
X152652026Y-86136574D01*
X152936493Y-86145554D01*
X153095136Y-86172253D01*
X153163936Y-86225667D01*
X153178874Y-86314789D01*
X153208271Y-86430421D01*
X153357747Y-86493662D01*
X153460992Y-86513917D01*
X153521620Y-86617358D01*
X153536620Y-86851409D01*
X153526493Y-87057899D01*
X153474772Y-87179155D01*
X153357747Y-87209155D01*
X153242115Y-87238552D01*
X153178874Y-87388028D01*
X153208271Y-87503660D01*
G37*
G36*
X151263928Y-93294659D02*
G01*
X151322539Y-93328669D01*
X151359526Y-93422974D01*
X151379828Y-93607217D01*
X151388386Y-93911040D01*
X151390141Y-94364085D01*
X151389506Y-94680047D01*
X151383837Y-95031712D01*
X151368120Y-95253630D01*
X151337413Y-95375444D01*
X151286775Y-95426794D01*
X151211268Y-95437324D01*
X151197973Y-95437472D01*
X151131017Y-95450942D01*
X151085041Y-95505837D01*
X151056118Y-95629645D01*
X151040320Y-95849855D01*
X151033722Y-96193956D01*
X151032395Y-96689437D01*
X151032416Y-96782502D01*
X151034340Y-97251192D01*
X151042182Y-97573024D01*
X151059869Y-97775487D01*
X151091328Y-97886070D01*
X151140485Y-97932261D01*
X151211268Y-97941549D01*
X151326900Y-97970947D01*
X151390141Y-98120423D01*
X151360744Y-98236055D01*
X151211268Y-98299296D01*
X151095636Y-98328693D01*
X151032395Y-98478169D01*
X151022529Y-98557395D01*
X150957437Y-98621845D01*
X150795488Y-98650516D01*
X150495775Y-98657042D01*
X150258096Y-98653754D01*
X150064747Y-98632057D01*
X149978735Y-98578073D01*
X149959155Y-98478169D01*
X149988552Y-98362537D01*
X150138028Y-98299296D01*
X150253660Y-98269899D01*
X150316902Y-98120423D01*
X150346299Y-98004791D01*
X150495775Y-97941549D01*
X150509070Y-97941402D01*
X150576026Y-97927932D01*
X150622002Y-97873037D01*
X150650925Y-97749229D01*
X150666723Y-97529018D01*
X150673321Y-97184917D01*
X150674648Y-96689437D01*
X150674669Y-96596371D01*
X150676594Y-96127682D01*
X150684436Y-95805850D01*
X150702123Y-95603387D01*
X150733581Y-95492804D01*
X150782739Y-95446613D01*
X150853521Y-95437324D01*
X150906182Y-95433510D01*
X150964793Y-95399501D01*
X151001779Y-95305195D01*
X151022081Y-95120952D01*
X151030640Y-94817129D01*
X151032395Y-94364085D01*
X151033030Y-94048122D01*
X151038699Y-93696457D01*
X151054416Y-93474539D01*
X151085123Y-93352726D01*
X151135761Y-93301375D01*
X151211268Y-93290845D01*
X151263928Y-93294659D01*
G37*
G36*
X154904365Y-94035735D02*
G01*
X154967606Y-94185211D01*
X154997003Y-94300843D01*
X155146479Y-94364085D01*
X155262111Y-94393482D01*
X155325352Y-94542958D01*
X155354750Y-94658590D01*
X155504226Y-94721831D01*
X155607471Y-94742086D01*
X155668099Y-94845527D01*
X155683099Y-95079578D01*
X155672972Y-95286068D01*
X155621251Y-95407324D01*
X155504226Y-95437324D01*
X155400980Y-95457578D01*
X155340353Y-95561020D01*
X155325352Y-95795071D01*
X155315225Y-96001561D01*
X155263505Y-96122817D01*
X155146479Y-96152817D01*
X155043234Y-96173071D01*
X154982606Y-96276513D01*
X154967606Y-96510564D01*
X154957479Y-96717054D01*
X154905758Y-96838310D01*
X154788733Y-96868310D01*
X154673101Y-96897707D01*
X154609859Y-97047183D01*
X154630114Y-97150428D01*
X154733555Y-97211056D01*
X154967606Y-97226056D01*
X155174096Y-97236184D01*
X155295352Y-97287904D01*
X155325352Y-97404930D01*
X155354750Y-97520562D01*
X155504226Y-97583803D01*
X155619858Y-97613200D01*
X155683099Y-97762676D01*
X155673234Y-97841902D01*
X155608141Y-97906352D01*
X155446192Y-97935023D01*
X155146479Y-97941549D01*
X154908800Y-97938261D01*
X154715451Y-97916564D01*
X154629440Y-97862581D01*
X154609859Y-97762676D01*
X154580462Y-97647044D01*
X154430986Y-97583803D01*
X154327741Y-97563549D01*
X154267113Y-97460107D01*
X154252113Y-97226056D01*
X154262240Y-97019566D01*
X154313961Y-96898310D01*
X154430986Y-96868310D01*
X154534231Y-96848056D01*
X154594859Y-96744614D01*
X154609859Y-96510564D01*
X154619987Y-96304073D01*
X154671707Y-96182817D01*
X154788733Y-96152817D01*
X154891978Y-96132563D01*
X154952606Y-96029121D01*
X154967606Y-95795071D01*
X154977733Y-95588580D01*
X155029454Y-95467324D01*
X155146479Y-95437324D01*
X155249724Y-95417070D01*
X155310352Y-95313628D01*
X155325352Y-95079578D01*
X155315225Y-94873087D01*
X155263505Y-94751831D01*
X155146479Y-94721831D01*
X155030847Y-94692434D01*
X154967606Y-94542958D01*
X154938209Y-94427326D01*
X154788733Y-94364085D01*
X154673101Y-94334688D01*
X154609859Y-94185211D01*
X154639257Y-94069579D01*
X154788733Y-94006338D01*
X154904365Y-94035735D01*
G37*
G36*
X154606763Y-91404455D02*
G01*
X154593811Y-91652258D01*
X154564515Y-91789176D01*
X154512398Y-91847584D01*
X154430986Y-91859859D01*
X154327741Y-91880114D01*
X154267113Y-91983555D01*
X154252113Y-92217606D01*
X154241986Y-92424096D01*
X154190265Y-92545352D01*
X154073240Y-92575352D01*
X153957608Y-92604749D01*
X153894367Y-92754226D01*
X153874112Y-92857471D01*
X153770671Y-92918099D01*
X153536620Y-92933099D01*
X153330130Y-92922972D01*
X153208874Y-92871251D01*
X153178874Y-92754226D01*
X153149476Y-92638594D01*
X153000000Y-92575352D01*
X152896755Y-92555098D01*
X152836127Y-92451657D01*
X152821127Y-92217606D01*
X152811000Y-92011115D01*
X152759279Y-91889860D01*
X152642254Y-91859859D01*
X152632674Y-91859786D01*
X152554461Y-91844377D01*
X152504901Y-91779619D01*
X152477517Y-91633136D01*
X152465836Y-91372553D01*
X152465539Y-91323240D01*
X152821127Y-91323240D01*
X152850524Y-91438872D01*
X153000000Y-91502113D01*
X153115632Y-91472716D01*
X153178874Y-91323240D01*
X153199128Y-91219994D01*
X153302569Y-91159366D01*
X153536620Y-91144366D01*
X153743110Y-91154494D01*
X153864366Y-91206214D01*
X153894367Y-91323240D01*
X153923764Y-91438872D01*
X154073240Y-91502113D01*
X154188872Y-91472716D01*
X154252113Y-91323240D01*
X154222716Y-91207608D01*
X154073240Y-91144366D01*
X153957608Y-91114969D01*
X153894367Y-90965493D01*
X153874112Y-90862248D01*
X153770671Y-90801620D01*
X153536620Y-90786620D01*
X153330130Y-90796747D01*
X153208874Y-90848468D01*
X153178874Y-90965493D01*
X153149476Y-91081125D01*
X153000000Y-91144366D01*
X152884368Y-91173763D01*
X152821127Y-91323240D01*
X152465539Y-91323240D01*
X152463381Y-90965493D01*
X152463395Y-90917594D01*
X152466477Y-90526531D01*
X152479429Y-90278728D01*
X152508725Y-90141810D01*
X152560842Y-90083402D01*
X152642254Y-90071127D01*
X152757886Y-90100524D01*
X152821127Y-90250000D01*
X152823760Y-90297161D01*
X152859681Y-90368278D01*
X152966478Y-90407939D01*
X153180131Y-90425139D01*
X153536620Y-90428873D01*
X153725265Y-90428215D01*
X154009732Y-90419235D01*
X154168375Y-90392536D01*
X154237175Y-90339122D01*
X154252113Y-90250000D01*
X154281510Y-90134368D01*
X154430986Y-90071127D01*
X154440566Y-90071200D01*
X154518779Y-90086609D01*
X154568339Y-90151367D01*
X154595723Y-90297850D01*
X154607405Y-90558433D01*
X154609859Y-90965493D01*
X154609845Y-91013392D01*
X154607403Y-91323240D01*
X154606763Y-91404455D01*
G37*
G36*
X154967606Y-84704930D02*
G01*
X154977733Y-84911420D01*
X155029454Y-85032676D01*
X155146479Y-85062676D01*
X155262111Y-85092073D01*
X155325352Y-85241549D01*
X155354750Y-85357181D01*
X155504226Y-85420423D01*
X155619858Y-85449820D01*
X155683099Y-85599296D01*
X155712496Y-85714928D01*
X155861972Y-85778169D01*
X155977604Y-85807566D01*
X156040845Y-85957042D01*
X156070243Y-86072674D01*
X156219719Y-86135916D01*
X156335351Y-86165313D01*
X156398592Y-86314789D01*
X156369195Y-86430421D01*
X156219719Y-86493662D01*
X156104087Y-86523059D01*
X156040845Y-86672535D01*
X156011448Y-86788167D01*
X155861972Y-86851409D01*
X155746340Y-86880806D01*
X155683099Y-87030282D01*
X155653702Y-87145914D01*
X155504226Y-87209155D01*
X155388594Y-87238552D01*
X155325352Y-87388028D01*
X155295955Y-87503660D01*
X155146479Y-87566902D01*
X155030847Y-87596299D01*
X154967606Y-87745775D01*
X154938209Y-87861407D01*
X154788733Y-87924648D01*
X154673101Y-87954045D01*
X154609859Y-88103521D01*
X154589605Y-88206766D01*
X154486164Y-88267394D01*
X154252113Y-88282395D01*
X153894367Y-88282395D01*
X153894367Y-88640141D01*
X153884239Y-88846631D01*
X153832519Y-88967887D01*
X153715493Y-88997887D01*
X153612248Y-88977633D01*
X153551620Y-88874192D01*
X153536620Y-88640141D01*
X153546747Y-88433651D01*
X153598468Y-88312395D01*
X153715493Y-88282395D01*
X153818738Y-88262140D01*
X153879366Y-88158699D01*
X153894367Y-87924648D01*
X153904494Y-87718158D01*
X153956214Y-87596902D01*
X154073240Y-87566902D01*
X154188872Y-87596299D01*
X154252113Y-87745775D01*
X154281510Y-87861407D01*
X154430986Y-87924648D01*
X154546618Y-87895251D01*
X154609859Y-87745775D01*
X154639257Y-87630143D01*
X154788733Y-87566902D01*
X154904365Y-87537504D01*
X154967606Y-87388028D01*
X154997003Y-87272396D01*
X155146479Y-87209155D01*
X155262111Y-87179758D01*
X155325352Y-87030282D01*
X155354750Y-86914650D01*
X155504226Y-86851409D01*
X155619858Y-86822011D01*
X155683099Y-86672535D01*
X155712496Y-86556903D01*
X155861972Y-86493662D01*
X155977604Y-86464265D01*
X156040845Y-86314789D01*
X156011448Y-86199157D01*
X155861972Y-86135916D01*
X155746340Y-86106518D01*
X155683099Y-85957042D01*
X155653702Y-85841410D01*
X155504226Y-85778169D01*
X155388594Y-85748772D01*
X155325352Y-85599296D01*
X155295955Y-85483664D01*
X155146479Y-85420423D01*
X155030847Y-85391026D01*
X154967606Y-85241549D01*
X154947352Y-85138304D01*
X154843910Y-85077676D01*
X154609859Y-85062676D01*
X154403369Y-85052549D01*
X154282113Y-85000828D01*
X154252113Y-84883803D01*
X154222716Y-84768171D01*
X154073240Y-84704930D01*
X153957608Y-84734327D01*
X153894367Y-84883803D01*
X153864969Y-84999435D01*
X153715493Y-85062676D01*
X153599861Y-85033279D01*
X153536620Y-84883803D01*
X153566017Y-84768171D01*
X153715493Y-84704930D01*
X153831125Y-84675533D01*
X153894367Y-84526056D01*
X154252113Y-84526056D01*
X154281510Y-84641688D01*
X154430986Y-84704930D01*
X154546618Y-84675533D01*
X154609859Y-84526056D01*
X154580462Y-84410424D01*
X154430986Y-84347183D01*
X154315354Y-84376580D01*
X154252113Y-84526056D01*
X153894367Y-84526056D01*
X153864969Y-84410424D01*
X153715493Y-84347183D01*
X153599861Y-84317786D01*
X153536620Y-84168310D01*
X153507223Y-84052678D01*
X153357747Y-83989437D01*
X153242115Y-83960040D01*
X153178874Y-83810564D01*
X153149476Y-83694932D01*
X153000000Y-83631690D01*
X152884368Y-83602293D01*
X152821127Y-83452817D01*
X152791730Y-83337185D01*
X152642254Y-83273944D01*
X152526622Y-83244547D01*
X152463381Y-83095071D01*
X152433983Y-82979439D01*
X152284507Y-82916197D01*
X152168875Y-82886800D01*
X152105634Y-82737324D01*
X152076237Y-82621692D01*
X151926761Y-82558451D01*
X151823516Y-82538196D01*
X151762888Y-82434755D01*
X151747888Y-82200704D01*
X151747888Y-81842958D01*
X152105634Y-81842958D01*
X152312125Y-81853085D01*
X152433380Y-81904806D01*
X152463381Y-82021831D01*
X152492778Y-82137463D01*
X152642254Y-82200704D01*
X152757886Y-82230102D01*
X152821127Y-82379578D01*
X152850524Y-82495210D01*
X153000000Y-82558451D01*
X153115632Y-82587848D01*
X153178874Y-82737324D01*
X153208271Y-82852956D01*
X153357747Y-82916197D01*
X153473379Y-82945594D01*
X153536620Y-83095071D01*
X153566017Y-83210703D01*
X153715493Y-83273944D01*
X153831125Y-83303341D01*
X153894367Y-83452817D01*
X153923764Y-83568449D01*
X154073240Y-83631690D01*
X154188872Y-83661087D01*
X154252113Y-83810564D01*
X154281510Y-83926196D01*
X154430986Y-83989437D01*
X154546618Y-83960040D01*
X154609859Y-83810564D01*
X154639257Y-83694932D01*
X154788733Y-83631690D01*
X154904365Y-83661087D01*
X154967606Y-83810564D01*
X154938209Y-83926196D01*
X154788733Y-83989437D01*
X154673101Y-84018834D01*
X154609859Y-84168310D01*
X154639257Y-84283942D01*
X154788733Y-84347183D01*
X154891978Y-84367438D01*
X154952606Y-84470879D01*
X154956142Y-84526056D01*
X154967606Y-84704930D01*
G37*
G36*
X155325352Y-90607747D02*
G01*
X155325350Y-90654061D01*
X155324344Y-91214584D01*
X155319652Y-91622248D01*
X155308577Y-91901335D01*
X155288421Y-92076130D01*
X155256484Y-92170917D01*
X155210070Y-92209981D01*
X155146479Y-92217606D01*
X155043234Y-92237860D01*
X154982606Y-92341302D01*
X154967606Y-92575352D01*
X154957479Y-92781843D01*
X154905758Y-92903098D01*
X154788733Y-92933099D01*
X154673101Y-92962496D01*
X154609859Y-93111972D01*
X154580462Y-93227604D01*
X154430986Y-93290845D01*
X154315354Y-93320242D01*
X154252113Y-93469718D01*
X154222716Y-93585350D01*
X154073240Y-93648592D01*
X153957608Y-93677989D01*
X153894367Y-93827465D01*
X153874112Y-93930710D01*
X153770671Y-93991338D01*
X153536620Y-94006338D01*
X153330130Y-93996211D01*
X153208874Y-93944490D01*
X153178874Y-93827465D01*
X153149476Y-93711833D01*
X153000000Y-93648592D01*
X152884368Y-93619195D01*
X152821127Y-93469718D01*
X152791730Y-93354086D01*
X152642254Y-93290845D01*
X152526622Y-93261448D01*
X152463381Y-93111972D01*
X152433983Y-92996340D01*
X152284507Y-92933099D01*
X152168875Y-92962496D01*
X152105634Y-93111972D01*
X152076237Y-93227604D01*
X151926761Y-93290845D01*
X151811129Y-93261448D01*
X151747888Y-93111972D01*
X151727633Y-93008727D01*
X151624192Y-92948099D01*
X151390141Y-92933099D01*
X151183651Y-92922972D01*
X151062395Y-92871251D01*
X151032395Y-92754226D01*
X151002998Y-92638594D01*
X150853521Y-92575352D01*
X150737889Y-92545955D01*
X150674648Y-92396479D01*
X150704045Y-92280847D01*
X150853521Y-92217606D01*
X150969153Y-92188209D01*
X151032395Y-92038733D01*
X151002998Y-91923101D01*
X150853521Y-91859859D01*
X150737889Y-91830462D01*
X150674648Y-91680986D01*
X150704045Y-91565354D01*
X150853521Y-91502113D01*
X150969153Y-91531510D01*
X151032395Y-91680986D01*
X151061792Y-91796618D01*
X151211268Y-91859859D01*
X151314513Y-91880114D01*
X151375141Y-91983555D01*
X151390141Y-92217606D01*
X151400268Y-92424096D01*
X151451989Y-92545352D01*
X151569014Y-92575352D01*
X151684646Y-92604749D01*
X151747888Y-92754226D01*
X151777285Y-92869857D01*
X151926761Y-92933099D01*
X152030006Y-92912844D01*
X152090634Y-92809403D01*
X152105634Y-92575352D01*
X152095507Y-92368862D01*
X152043786Y-92247606D01*
X151926761Y-92217606D01*
X151847535Y-92207740D01*
X151783085Y-92142648D01*
X151754414Y-91980699D01*
X151747888Y-91680986D01*
X151747888Y-91144366D01*
X150674648Y-91144366D01*
X149601409Y-91144366D01*
X149601409Y-90607747D01*
X149604697Y-90370068D01*
X149626395Y-90176718D01*
X149680378Y-90090707D01*
X149780282Y-90071127D01*
X149895914Y-90041730D01*
X149959155Y-89892254D01*
X149988552Y-89776622D01*
X150138028Y-89713380D01*
X150241274Y-89693126D01*
X150301902Y-89589685D01*
X150316902Y-89355634D01*
X150327029Y-89149144D01*
X150378750Y-89027888D01*
X150495775Y-88997887D01*
X150611407Y-88968490D01*
X150674648Y-88819014D01*
X150645251Y-88703382D01*
X150495775Y-88640141D01*
X150380143Y-88610744D01*
X150316902Y-88461268D01*
X150346299Y-88345636D01*
X150495775Y-88282395D01*
X150611407Y-88252997D01*
X150674648Y-88103521D01*
X150704045Y-87987889D01*
X150853521Y-87924648D01*
X150969153Y-87954045D01*
X151032395Y-88103521D01*
X151061792Y-88219153D01*
X151211268Y-88282395D01*
X151326900Y-88311792D01*
X151390141Y-88461268D01*
X151360744Y-88576900D01*
X151211268Y-88640141D01*
X151095636Y-88669538D01*
X151032395Y-88819014D01*
X151002998Y-88934646D01*
X150853521Y-88997887D01*
X150750276Y-89018142D01*
X150689648Y-89121583D01*
X150674648Y-89355634D01*
X150664521Y-89562124D01*
X150612800Y-89683380D01*
X150495775Y-89713380D01*
X150380143Y-89742778D01*
X150316902Y-89892254D01*
X150287505Y-90007886D01*
X150138028Y-90071127D01*
X150034783Y-90091381D01*
X149974155Y-90194823D01*
X149959155Y-90428873D01*
X149959155Y-90786620D01*
X150853521Y-90786620D01*
X151747888Y-90786620D01*
X151747888Y-89892254D01*
X151747888Y-89713380D01*
X152105634Y-89713380D01*
X152105634Y-90786620D01*
X152106270Y-91102582D01*
X152111938Y-91454247D01*
X152127656Y-91676165D01*
X152158363Y-91797979D01*
X152209000Y-91849329D01*
X152284507Y-91859859D01*
X152387753Y-91880114D01*
X152448380Y-91983555D01*
X152463381Y-92217606D01*
X152473508Y-92424096D01*
X152525228Y-92545352D01*
X152642254Y-92575352D01*
X152757886Y-92604749D01*
X152821127Y-92754226D01*
X152850524Y-92869857D01*
X153000000Y-92933099D01*
X153115632Y-92962496D01*
X153178874Y-93111972D01*
X153199128Y-93215217D01*
X153302569Y-93275845D01*
X153536620Y-93290845D01*
X153743110Y-93280718D01*
X153864366Y-93228997D01*
X153894367Y-93111972D01*
X153923764Y-92996340D01*
X154073240Y-92933099D01*
X154188872Y-92903702D01*
X154252113Y-92754226D01*
X154281510Y-92638594D01*
X154430986Y-92575352D01*
X154534231Y-92555098D01*
X154594859Y-92451657D01*
X154609859Y-92217606D01*
X154619987Y-92011115D01*
X154671707Y-91889860D01*
X154788733Y-91859859D01*
X154841393Y-91856045D01*
X154900004Y-91822036D01*
X154936990Y-91727730D01*
X154957293Y-91543487D01*
X154965851Y-91239664D01*
X154967606Y-90786620D01*
X154967606Y-89713380D01*
X154609859Y-89713380D01*
X154403369Y-89723508D01*
X154282113Y-89775228D01*
X154252113Y-89892254D01*
X154249480Y-89939415D01*
X154213559Y-90010532D01*
X154106762Y-90050192D01*
X153893109Y-90067392D01*
X153536620Y-90071127D01*
X153347975Y-90070469D01*
X153063508Y-90061488D01*
X152904865Y-90034789D01*
X152836065Y-89981376D01*
X152821127Y-89892254D01*
X152800873Y-89789008D01*
X152697431Y-89728381D01*
X152463381Y-89713380D01*
X152105634Y-89713380D01*
X151747888Y-89713380D01*
X151747888Y-88997887D01*
X152284507Y-88997887D01*
X152522186Y-89001176D01*
X152715536Y-89022873D01*
X152801547Y-89076856D01*
X152821127Y-89176761D01*
X152823760Y-89223922D01*
X152859681Y-89295039D01*
X152966478Y-89334700D01*
X153180131Y-89351900D01*
X153536620Y-89355634D01*
X153725265Y-89354976D01*
X154009732Y-89345995D01*
X154168375Y-89319296D01*
X154237175Y-89265883D01*
X154252113Y-89176761D01*
X154261978Y-89097534D01*
X154327071Y-89033085D01*
X154489020Y-89004414D01*
X154788733Y-88997887D01*
X155325352Y-88997887D01*
X155325352Y-89713380D01*
X155325352Y-90607747D01*
G37*
D13*
X141035000Y-98935000D02*
X141035000Y-87675000D01*
X141035000Y-86175000D02*
X141035000Y-86065000D01*
X141035000Y-86065000D02*
X139225000Y-86064999D01*
X139875000Y-98935000D02*
X141035000Y-98935000D01*
X137325000Y-86064999D02*
X131025000Y-86065000D01*
X136625000Y-98935000D02*
X131025000Y-98935000D01*
%LPC*%
D14*
X146535001Y-105410000D03*
X143995000Y-105410000D03*
X141455001Y-105410000D03*
D15*
X138915001Y-105410000D03*
D14*
X151615001Y-77724000D03*
X149075000Y-77724000D03*
X146535000Y-77724000D03*
X143995000Y-77724000D03*
X141455000Y-77724000D03*
X138914999Y-77724000D03*
X136375000Y-77724000D03*
D15*
X133835000Y-77724000D03*
D16*
X138275000Y-86525000D03*
D17*
X130025000Y-86874999D03*
D18*
X130025000Y-98225000D03*
D19*
X137625001Y-98475000D03*
D20*
X140700000Y-86925000D03*
D21*
X139125000Y-98150000D03*
D22*
X129900000Y-97025000D03*
X129900000Y-95925000D03*
X129900000Y-94825000D03*
X129900000Y-93725000D03*
X129900000Y-92625000D03*
X129900000Y-91525000D03*
X129900000Y-90425000D03*
X129900000Y-89325000D03*
D23*
X133835000Y-67975000D03*
X136375000Y-67975000D03*
X138915000Y-67975000D03*
X141455000Y-67975000D03*
X143995000Y-67975000D03*
X146535000Y-67975000D03*
X149075000Y-67975000D03*
X151615000Y-67975000D03*
%LPD*%
M02*
