M48
; DRILL file KiCad 10.0.1 date 2026-08-05T20:42:21
; FORMAT={-:-/ absolute / metric / decimal}
; #@! TF.CreationDate,2026-08-05T20:42:21+02:00
; #@! TF.GenerationSoftware,Kicad,Pcbnew,10.0.1
; #@! TF.FileFunction,Plated,1,2,PTH
FMAT,2
METRIC
; #@! TA.AperFunction,Plated,PTH,ViaDrill
T1C0.400
; #@! TA.AperFunction,Plated,PTH,ComponentDrill
T2C1.000
%
G90
G05
T1
X128.0Y-92.6
X128.11Y-94.82
X129.9Y-95.925
X130.6Y-81.6
X131.325Y-80.4
X131.84Y-94.87
X132.8Y-93.325
X134.98Y-74.18
X150.22Y-94.66
X150.25Y-95.94
X150.3Y-99.28
X150.32Y-97.19
X156.45Y-98.89
T2
X133.835Y-77.724
X136.375Y-77.724
X138.915Y-77.724
X138.915Y-105.7
X141.455Y-77.724
X141.455Y-105.7
X143.995Y-77.724
X143.995Y-105.7
X146.535Y-77.724
X146.535Y-105.7
X149.075Y-77.724
X151.615Y-77.724
M30
