G04 #@! TF.GenerationSoftware,KiCad,Pcbnew,10.0.1*
G04 #@! TF.CreationDate,2026-08-05T20:42:08+02:00*
G04 #@! TF.ProjectId,MicroPicoDriveCartridge,4d696372-6f50-4696-936f-447269766543,rev?*
G04 #@! TF.SameCoordinates,Original*
G04 #@! TF.FileFunction,Soldermask,Top*
G04 #@! TF.FilePolarity,Negative*
%FSLAX46Y46*%
G04 Gerber Fmt 4.6, Leading zero omitted, Abs format (unit mm)*
G04 Created by KiCad (PCBNEW 10.0.1) date 2026-08-05 20:42:08*
%MOMM*%
%LPD*%
G01*
G04 APERTURE LIST*
G04 Aperture macros list*
%AMRoundRect*
0 Rectangle with rounded corners*
0 $1 Rounding radius*
0 $2 $3 $4 $5 $6 $7 $8 $9 X,Y pos of 4 corners*
0 Add a 4 corners polygon primitive as box body*
4,1,4,$2,$3,$4,$5,$6,$7,$8,$9,$2,$3,0*
0 Add four circle primitives for the rounded corners*
1,1,$1+$1,$2,$3*
1,1,$1+$1,$4,$5*
1,1,$1+$1,$6,$7*
1,1,$1+$1,$8,$9*
0 Add four rect primitives between the rounded corners*
20,1,$1+$1,$2,$3,$4,$5,0*
20,1,$1+$1,$4,$5,$6,$7,0*
20,1,$1+$1,$6,$7,$8,$9,0*
20,1,$1+$1,$8,$9,$2,$3,0*%
G04 Aperture macros list end*
%ADD10RoundRect,0.500000X-0.500000X-3.000000X0.500000X-3.000000X0.500000X3.000000X-0.500000X3.000000X0*%
%ADD11RoundRect,0.500000X-0.500000X-3.500000X0.500000X-3.500000X0.500000X3.500000X-0.500000X3.500000X0*%
%ADD12RoundRect,0.500000X-0.500000X-2.625000X0.500000X-2.625000X0.500000X2.625000X-0.500000X2.625000X0*%
%ADD13RoundRect,0.200000X0.200000X0.275000X-0.200000X0.275000X-0.200000X-0.275000X0.200000X-0.275000X0*%
%ADD14RoundRect,0.243750X0.456250X-0.243750X0.456250X0.243750X-0.456250X0.243750X-0.456250X-0.243750X0*%
%ADD15R,1.700000X1.700000*%
%ADD16C,1.700000*%
%ADD17RoundRect,0.225000X-0.225000X-0.250000X0.225000X-0.250000X0.225000X0.250000X-0.225000X0.250000X0*%
%ADD18RoundRect,0.200000X0.275000X-0.200000X0.275000X0.200000X-0.275000X0.200000X-0.275000X-0.200000X0*%
G04 APERTURE END LIST*
D10*
X133835000Y-68475000D03*
D11*
X136375000Y-67975000D03*
D12*
X138915000Y-68850000D03*
X141455000Y-68850000D03*
X143995000Y-68850000D03*
X146535000Y-68850000D03*
X149075000Y-68850000D03*
X151615000Y-68850000D03*
D13*
X144825000Y-81750000D03*
X143175000Y-81750000D03*
D14*
X130100000Y-93475002D03*
X130100000Y-91600000D03*
D15*
X133835000Y-77724000D03*
D16*
X136375000Y-77724000D03*
X138914999Y-77724000D03*
X141455000Y-77724000D03*
X143995000Y-77724000D03*
X146535000Y-77724000D03*
X149075000Y-77724000D03*
X151615001Y-77724000D03*
D17*
X143225000Y-84000000D03*
X144775000Y-84000000D03*
D18*
X132800000Y-93382500D03*
X132800000Y-91732500D03*
D15*
X138915001Y-105700000D03*
D16*
X141455001Y-105700000D03*
X143995000Y-105700000D03*
X146535001Y-105700000D03*
G36*
X153240677Y-63594685D02*
G01*
X153261319Y-63611319D01*
X154188681Y-64538681D01*
X154222166Y-64600004D01*
X154225000Y-64626362D01*
X154225000Y-70876000D01*
X154205315Y-70943039D01*
X154152511Y-70988794D01*
X154101000Y-71000000D01*
X131349000Y-71000000D01*
X131281961Y-70980315D01*
X131236206Y-70927511D01*
X131225000Y-70876000D01*
X131225000Y-64626362D01*
X131244685Y-64559323D01*
X131261319Y-64538681D01*
X132188681Y-63611319D01*
X132250004Y-63577834D01*
X132276362Y-63575000D01*
X153173638Y-63575000D01*
X153240677Y-63594685D01*
G37*
M02*
