M48
; DRILL file KiCad 10.0.1 date 2026-08-04T08:16:41
; FORMAT={-:-/ absolute / metric / decimal}
; #@! TF.CreationDate,2026-08-04T08:16:41+02:00
; #@! TF.GenerationSoftware,Kicad,Pcbnew,10.0.1
; #@! TF.FileFunction,Plated,1,2,PTH
FMAT,2
METRIC
; #@! TA.AperFunction,Plated,PTH,ViaDrill
T1C0.200
; #@! TA.AperFunction,Plated,PTH,ComponentDrill
T2C1.000
; #@! TA.AperFunction,Plated,PTH,ComponentDrill
T3C1.020
%
G90
G05
T1
X116.332Y-108.966
X116.332Y-113.538
X116.332Y-118.364
X116.332Y-122.682
X116.586Y-127.508
X117.094Y-100.33
X117.348Y-77.47
X118.364Y-76.2
X120.142Y-130.048
X121.666Y-100.33
X121.666Y-108.966
X121.92Y-73.66
X122.093Y-79.329
X122.174Y-76.454
X123.725Y-80.237
X124.206Y-77.724
X124.206Y-91.44
X124.206Y-97.79
X124.995Y-81.507
X125.476Y-130.302
X126.7Y-80.7
X127.0Y-91.44
X127.762Y-75.184
X128.016Y-77.47
X128.016Y-108.712
X129.286Y-77.724
X129.286Y-82.042
X129.75Y-79.273
X131.826Y-130.048
X132.08Y-82.042
X132.08Y-91.44
X133.096Y-75.946
X133.096Y-81.28
X134.366Y-107.696
X134.366Y-112.014
X134.8Y-78.1
X134.825Y-79.9
X137.0Y-78.1
X137.16Y-73.406
X137.16Y-91.44
X137.414Y-130.048
X138.176Y-82.042
X138.559Y-76.308
X139.7Y-119.888
X139.954Y-125.73
X140.749Y-91.694
X140.749Y-94.996
X140.781Y-106.934
X140.781Y-109.474
X141.478Y-82.042
X141.732Y-73.406
X142.494Y-78.486
X142.748Y-76.308
X143.321Y-94.15
X143.321Y-97.36
X143.51Y-76.708
X143.764Y-75.485
X144.22Y-106.934
X144.22Y-109.474
X144.78Y-118.872
X146.558Y-91.44
X146.558Y-97.282
X151.13Y-118.872
X154.178Y-97.282
X155.0Y-98.8
X155.9Y-95.8
X156.718Y-118.872
X158.76Y-93.38
X161.38Y-93.43
X167.47Y-82.231
X167.49Y-85.285
X170.87Y-82.231
X170.97Y-85.285
X171.958Y-121.412
X171.958Y-129.032
X172.5Y-102.2
X172.5Y-113.25
X175.006Y-99.314
X175.006Y-104.902
X175.006Y-109.22
X175.006Y-114.808
X175.006Y-121.412
X175.26Y-129.032
X178.308Y-121.412
X178.562Y-129.032
X178.98Y-77.78
X224.79Y-81.28
T2
X146.85Y-76.085
X146.85Y-78.625
X146.875Y-110.375
X146.875Y-115.455
X149.39Y-76.085
X149.39Y-78.625
X149.415Y-110.375
X149.415Y-115.455
X151.93Y-76.085
X151.93Y-78.625
X151.955Y-110.375
X151.955Y-115.455
X154.47Y-76.085
X154.47Y-78.625
X154.495Y-110.375
X154.495Y-115.455
X157.01Y-76.085
X157.01Y-78.625
X157.035Y-110.375
X157.035Y-115.455
X159.55Y-76.085
X159.55Y-78.625
X159.575Y-110.375
X159.575Y-115.455
X162.09Y-76.085
X162.09Y-78.625
X162.115Y-110.375
X162.115Y-115.455
X164.655Y-110.375
X164.655Y-115.455
T3
X116.635Y-85.285
X116.635Y-103.065
X119.175Y-85.285
X119.175Y-103.065
X121.715Y-85.285
X121.715Y-103.065
X124.255Y-85.285
X124.255Y-103.065
X126.795Y-85.285
X126.795Y-103.065
X129.335Y-85.285
X129.335Y-103.065
X131.875Y-85.285
X131.875Y-103.065
X134.415Y-85.285
X134.415Y-103.065
X136.955Y-85.285
X136.955Y-103.065
X139.495Y-85.285
X139.495Y-103.065
X142.035Y-85.285
X142.035Y-103.065
X144.575Y-85.285
X144.575Y-103.065
X147.115Y-85.285
X147.115Y-103.065
X149.655Y-85.285
X149.655Y-103.065
X152.195Y-85.285
X152.195Y-103.065
X154.735Y-85.285
X154.735Y-103.065
X157.275Y-85.285
X157.275Y-103.065
X159.815Y-85.285
X159.815Y-103.065
X162.355Y-85.285
X162.355Y-103.065
X164.665Y-91.635
X164.665Y-94.175
X164.665Y-96.715
X164.895Y-85.285
X164.895Y-103.065
M30
