G04 #@! TF.GenerationSoftware,KiCad,Pcbnew,10.0.1*
G04 #@! TF.CreationDate,2026-09-13T18:01:22+02:00*
G04 #@! TF.ProjectId,MicroPicoDrive,4d696372-6f50-4696-936f-44726976652e,rev?*
G04 #@! TF.SameCoordinates,Original*
G04 #@! TF.FileFunction,Soldermask,Bot*
G04 #@! TF.FilePolarity,Negative*
%FSLAX46Y46*%
G04 Gerber Fmt 4.6, Leading zero omitted, Abs format (unit mm)*
G04 Created by KiCad (PCBNEW 10.0.1) date 2026-09-13 18:01:22*
%MOMM*%
%LPD*%
G01*
G04 APERTURE LIST*
%ADD10O,1.700000X1.700000*%
%ADD11R,1.700000X1.700000*%
%ADD12C,3.500000*%
%ADD13O,1.800000X1.800000*%
%ADD14O,1.500000X1.500000*%
%ADD15R,1.600000X0.800000*%
%ADD16R,3.000000X2.100000*%
G04 APERTURE END LIST*
D10*
X161720000Y-76070000D03*
X161720000Y-78610000D03*
X159180000Y-76070000D03*
X159180000Y-78610000D03*
X156640000Y-76070000D03*
X156640000Y-78610000D03*
X154100000Y-76070000D03*
X154100000Y-78610000D03*
X151560000Y-76070000D03*
X151560000Y-78610000D03*
X149020000Y-76070000D03*
X149020000Y-78610000D03*
X146480000Y-76070000D03*
D11*
X146480000Y-78610000D03*
D12*
X125645000Y-125700000D03*
D13*
X116765000Y-96900000D03*
D14*
X119795000Y-96600000D03*
X119795000Y-91750000D03*
D13*
X116765000Y-91450000D03*
D10*
X116635000Y-103065000D03*
X119175000Y-103065000D03*
D11*
X121715000Y-103065000D03*
D10*
X124255000Y-103065000D03*
X126795000Y-103065000D03*
X129335000Y-103065000D03*
X131875000Y-103065000D03*
D11*
X134415000Y-103065000D03*
D10*
X136955000Y-103065000D03*
X139495000Y-103065000D03*
X142035000Y-103065000D03*
X144575000Y-103065000D03*
D11*
X147115000Y-103065000D03*
D10*
X149655000Y-103065000D03*
X152195000Y-103065000D03*
X154735000Y-103065000D03*
X157275000Y-103065000D03*
D11*
X159815000Y-103065000D03*
D10*
X162355000Y-103065000D03*
X164895000Y-103065000D03*
X164895000Y-85285000D03*
X162355000Y-85285000D03*
D11*
X159815000Y-85285000D03*
D10*
X157275000Y-85285000D03*
X154735000Y-85285000D03*
X152195000Y-85285000D03*
X149655000Y-85285000D03*
D11*
X147115000Y-85285000D03*
D10*
X144575000Y-85285000D03*
X142035000Y-85285000D03*
X139495000Y-85285000D03*
X136955000Y-85285000D03*
D11*
X134415000Y-85285000D03*
D10*
X131875000Y-85285000D03*
X129335000Y-85285000D03*
X126795000Y-85285000D03*
X124255000Y-85285000D03*
D11*
X121715000Y-85285000D03*
D10*
X119175000Y-85285000D03*
X116635000Y-85285000D03*
X164665000Y-96715000D03*
D11*
X164665000Y-94175000D03*
D10*
X164665000Y-91635000D03*
D11*
X146875000Y-110375000D03*
D10*
X146875000Y-115455000D03*
X149415000Y-110375000D03*
X149415000Y-115455000D03*
X151955000Y-110375000D03*
X151955000Y-115455000D03*
X154495000Y-110375000D03*
X154495000Y-115455000D03*
X157035000Y-110375000D03*
X157035000Y-115455000D03*
X159575000Y-110375000D03*
X159575000Y-115455000D03*
X162115000Y-110375000D03*
X162115000Y-115455000D03*
X164655000Y-110375000D03*
X164655000Y-115455000D03*
D12*
X172100000Y-92125000D03*
D15*
X172500000Y-110750000D03*
X172500000Y-112000000D03*
X172500000Y-113250000D03*
D16*
X175400000Y-108200000D03*
X175400000Y-115800000D03*
M02*
