G04 #@! TF.GenerationSoftware,KiCad,Pcbnew,10.0.1*
G04 #@! TF.CreationDate,2026-08-04T08:16:43+02:00*
G04 #@! TF.ProjectId,MicroPicoDrive,4d696372-6f50-4696-936f-44726976652e,rev?*
G04 #@! TF.SameCoordinates,Original*
G04 #@! TF.FileFunction,Legend,Top*
G04 #@! TF.FilePolarity,Positive*
%FSLAX46Y46*%
G04 Gerber Fmt 4.6, Leading zero omitted, Abs format (unit mm)*
G04 Created by KiCad (PCBNEW 10.0.1) date 2026-08-04 08:16:43*
%MOMM*%
%LPD*%
G01*
G04 APERTURE LIST*
G04 Aperture macros list*
%AMRoundRect*
0 Rectangle with rounded corners*
0 $1 Rounding radius*
0 $2 $3 $4 $5 $6 $7 $8 $9 X,Y pos of 4 corners*
0 Add a 4 corners polygon primitive as box body*
4,1,4,$2,$3,$4,$5,$6,$7,$8,$9,$2,$3,0*
0 Add four circle primitives for the rounded corners*
1,1,$1+$1,$2,$3*
1,1,$1+$1,$4,$5*
1,1,$1+$1,$6,$7*
1,1,$1+$1,$8,$9*
0 Add four rect primitives between the rounded corners*
20,1,$1+$1,$2,$3,$4,$5,0*
20,1,$1+$1,$4,$5,$6,$7,0*
20,1,$1+$1,$6,$7,$8,$9,0*
20,1,$1+$1,$8,$9,$2,$3,0*%
G04 Aperture macros list end*
%ADD10C,0.150000*%
%ADD11C,0.260000*%
%ADD12C,0.300000*%
%ADD13C,0.000000*%
%ADD14C,0.120000*%
%ADD15C,0.200000*%
%ADD16RoundRect,0.225000X0.225000X0.250000X-0.225000X0.250000X-0.225000X-0.250000X0.225000X-0.250000X0*%
%ADD17C,3.500000*%
%ADD18RoundRect,0.225000X-0.225000X-0.250000X0.225000X-0.250000X0.225000X0.250000X-0.225000X0.250000X0*%
%ADD19R,1.200000X0.600000*%
%ADD20RoundRect,0.225000X-0.250000X0.225000X-0.250000X-0.225000X0.250000X-0.225000X0.250000X0.225000X0*%
%ADD21RoundRect,0.375000X0.625000X0.375000X-0.625000X0.375000X-0.625000X-0.375000X0.625000X-0.375000X0*%
%ADD22RoundRect,0.500000X0.500000X1.400000X-0.500000X1.400000X-0.500000X-1.400000X0.500000X-1.400000X0*%
%ADD23O,1.800000X1.800000*%
%ADD24O,1.500000X1.500000*%
%ADD25O,1.700000X1.700000*%
%ADD26R,1.700000X3.500000*%
%ADD27R,1.700000X1.700000*%
%ADD28R,1.475000X0.450000*%
%ADD29RoundRect,0.200000X0.200000X0.275000X-0.200000X0.275000X-0.200000X-0.275000X0.200000X-0.275000X0*%
G04 APERTURE END LIST*
D10*
X129341314Y-128875964D02*
X129298457Y-128833107D01*
X129298457Y-128833107D02*
X129212743Y-128704535D01*
X129212743Y-128704535D02*
X129169886Y-128618821D01*
X129169886Y-128618821D02*
X129127028Y-128490250D01*
X129127028Y-128490250D02*
X129084171Y-128275964D01*
X129084171Y-128275964D02*
X129084171Y-128104535D01*
X129084171Y-128104535D02*
X129127028Y-127890250D01*
X129127028Y-127890250D02*
X129169886Y-127761678D01*
X129169886Y-127761678D02*
X129212743Y-127675964D01*
X129212743Y-127675964D02*
X129298457Y-127547392D01*
X129298457Y-127547392D02*
X129341314Y-127504535D01*
X130069886Y-128490250D02*
X129984171Y-128533107D01*
X129984171Y-128533107D02*
X129812743Y-128533107D01*
X129812743Y-128533107D02*
X129727028Y-128490250D01*
X129727028Y-128490250D02*
X129684171Y-128447392D01*
X129684171Y-128447392D02*
X129641314Y-128361678D01*
X129641314Y-128361678D02*
X129641314Y-128104535D01*
X129641314Y-128104535D02*
X129684171Y-128018821D01*
X129684171Y-128018821D02*
X129727028Y-127975964D01*
X129727028Y-127975964D02*
X129812743Y-127933107D01*
X129812743Y-127933107D02*
X129984171Y-127933107D01*
X129984171Y-127933107D02*
X130069886Y-127975964D01*
X130369886Y-128875964D02*
X130412743Y-128833107D01*
X130412743Y-128833107D02*
X130498457Y-128704535D01*
X130498457Y-128704535D02*
X130541315Y-128618821D01*
X130541315Y-128618821D02*
X130584172Y-128490250D01*
X130584172Y-128490250D02*
X130627029Y-128275964D01*
X130627029Y-128275964D02*
X130627029Y-128104535D01*
X130627029Y-128104535D02*
X130584172Y-127890250D01*
X130584172Y-127890250D02*
X130541315Y-127761678D01*
X130541315Y-127761678D02*
X130498457Y-127675964D01*
X130498457Y-127675964D02*
X130412743Y-127547392D01*
X130412743Y-127547392D02*
X130369886Y-127504535D01*
X131698457Y-127718821D02*
X131741314Y-127675964D01*
X131741314Y-127675964D02*
X131827029Y-127633107D01*
X131827029Y-127633107D02*
X132041314Y-127633107D01*
X132041314Y-127633107D02*
X132127029Y-127675964D01*
X132127029Y-127675964D02*
X132169886Y-127718821D01*
X132169886Y-127718821D02*
X132212743Y-127804535D01*
X132212743Y-127804535D02*
X132212743Y-127890250D01*
X132212743Y-127890250D02*
X132169886Y-128018821D01*
X132169886Y-128018821D02*
X131655600Y-128533107D01*
X131655600Y-128533107D02*
X132212743Y-128533107D01*
X132769886Y-127633107D02*
X132855600Y-127633107D01*
X132855600Y-127633107D02*
X132941314Y-127675964D01*
X132941314Y-127675964D02*
X132984172Y-127718821D01*
X132984172Y-127718821D02*
X133027029Y-127804535D01*
X133027029Y-127804535D02*
X133069886Y-127975964D01*
X133069886Y-127975964D02*
X133069886Y-128190250D01*
X133069886Y-128190250D02*
X133027029Y-128361678D01*
X133027029Y-128361678D02*
X132984172Y-128447392D01*
X132984172Y-128447392D02*
X132941314Y-128490250D01*
X132941314Y-128490250D02*
X132855600Y-128533107D01*
X132855600Y-128533107D02*
X132769886Y-128533107D01*
X132769886Y-128533107D02*
X132684172Y-128490250D01*
X132684172Y-128490250D02*
X132641314Y-128447392D01*
X132641314Y-128447392D02*
X132598457Y-128361678D01*
X132598457Y-128361678D02*
X132555600Y-128190250D01*
X132555600Y-128190250D02*
X132555600Y-127975964D01*
X132555600Y-127975964D02*
X132598457Y-127804535D01*
X132598457Y-127804535D02*
X132641314Y-127718821D01*
X132641314Y-127718821D02*
X132684172Y-127675964D01*
X132684172Y-127675964D02*
X132769886Y-127633107D01*
X133412743Y-127718821D02*
X133455600Y-127675964D01*
X133455600Y-127675964D02*
X133541315Y-127633107D01*
X133541315Y-127633107D02*
X133755600Y-127633107D01*
X133755600Y-127633107D02*
X133841315Y-127675964D01*
X133841315Y-127675964D02*
X133884172Y-127718821D01*
X133884172Y-127718821D02*
X133927029Y-127804535D01*
X133927029Y-127804535D02*
X133927029Y-127890250D01*
X133927029Y-127890250D02*
X133884172Y-128018821D01*
X133884172Y-128018821D02*
X133369886Y-128533107D01*
X133369886Y-128533107D02*
X133927029Y-128533107D01*
X134698458Y-127633107D02*
X134527029Y-127633107D01*
X134527029Y-127633107D02*
X134441315Y-127675964D01*
X134441315Y-127675964D02*
X134398458Y-127718821D01*
X134398458Y-127718821D02*
X134312743Y-127847392D01*
X134312743Y-127847392D02*
X134269886Y-128018821D01*
X134269886Y-128018821D02*
X134269886Y-128361678D01*
X134269886Y-128361678D02*
X134312743Y-128447392D01*
X134312743Y-128447392D02*
X134355600Y-128490250D01*
X134355600Y-128490250D02*
X134441315Y-128533107D01*
X134441315Y-128533107D02*
X134612743Y-128533107D01*
X134612743Y-128533107D02*
X134698458Y-128490250D01*
X134698458Y-128490250D02*
X134741315Y-128447392D01*
X134741315Y-128447392D02*
X134784172Y-128361678D01*
X134784172Y-128361678D02*
X134784172Y-128147392D01*
X134784172Y-128147392D02*
X134741315Y-128061678D01*
X134741315Y-128061678D02*
X134698458Y-128018821D01*
X134698458Y-128018821D02*
X134612743Y-127975964D01*
X134612743Y-127975964D02*
X134441315Y-127975964D01*
X134441315Y-127975964D02*
X134355600Y-128018821D01*
X134355600Y-128018821D02*
X134312743Y-128061678D01*
X134312743Y-128061678D02*
X134269886Y-128147392D01*
X135812743Y-128275964D02*
X136241315Y-128275964D01*
X135727029Y-128533107D02*
X136027029Y-127633107D01*
X136027029Y-127633107D02*
X136327029Y-128533107D01*
X136627029Y-128533107D02*
X136627029Y-127933107D01*
X136627029Y-128104535D02*
X136669886Y-128018821D01*
X136669886Y-128018821D02*
X136712744Y-127975964D01*
X136712744Y-127975964D02*
X136798458Y-127933107D01*
X136798458Y-127933107D02*
X136884172Y-127933107D01*
X137312744Y-128533107D02*
X137227029Y-128490250D01*
X137227029Y-128490250D02*
X137184172Y-128404535D01*
X137184172Y-128404535D02*
X137184172Y-127633107D01*
X137998458Y-128490250D02*
X137912744Y-128533107D01*
X137912744Y-128533107D02*
X137741316Y-128533107D01*
X137741316Y-128533107D02*
X137655601Y-128490250D01*
X137655601Y-128490250D02*
X137612744Y-128404535D01*
X137612744Y-128404535D02*
X137612744Y-128061678D01*
X137612744Y-128061678D02*
X137655601Y-127975964D01*
X137655601Y-127975964D02*
X137741316Y-127933107D01*
X137741316Y-127933107D02*
X137912744Y-127933107D01*
X137912744Y-127933107D02*
X137998458Y-127975964D01*
X137998458Y-127975964D02*
X138041316Y-128061678D01*
X138041316Y-128061678D02*
X138041316Y-128147392D01*
X138041316Y-128147392D02*
X137612744Y-128233107D01*
X138341316Y-127933107D02*
X138555602Y-128533107D01*
X138769887Y-127933107D02*
X138555602Y-128533107D01*
X138555602Y-128533107D02*
X138469887Y-128747392D01*
X138469887Y-128747392D02*
X138427030Y-128790250D01*
X138427030Y-128790250D02*
X138341316Y-128833107D01*
X139369887Y-127633107D02*
X139369887Y-128275964D01*
X139369887Y-128275964D02*
X139327030Y-128404535D01*
X139327030Y-128404535D02*
X139241316Y-128490250D01*
X139241316Y-128490250D02*
X139112744Y-128533107D01*
X139112744Y-128533107D02*
X139027030Y-128533107D01*
X139798458Y-128533107D02*
X139798458Y-127933107D01*
X139798458Y-128104535D02*
X139841315Y-128018821D01*
X139841315Y-128018821D02*
X139884173Y-127975964D01*
X139884173Y-127975964D02*
X139969887Y-127933107D01*
X139969887Y-127933107D02*
X140055601Y-127933107D01*
X125998458Y-130324914D02*
X125955601Y-130282057D01*
X125955601Y-130282057D02*
X125869887Y-130153485D01*
X125869887Y-130153485D02*
X125827030Y-130067771D01*
X125827030Y-130067771D02*
X125784172Y-129939200D01*
X125784172Y-129939200D02*
X125741315Y-129724914D01*
X125741315Y-129724914D02*
X125741315Y-129553485D01*
X125741315Y-129553485D02*
X125784172Y-129339200D01*
X125784172Y-129339200D02*
X125827030Y-129210628D01*
X125827030Y-129210628D02*
X125869887Y-129124914D01*
X125869887Y-129124914D02*
X125955601Y-128996342D01*
X125955601Y-128996342D02*
X125998458Y-128953485D01*
X126727030Y-129939200D02*
X126641315Y-129982057D01*
X126641315Y-129982057D02*
X126469887Y-129982057D01*
X126469887Y-129982057D02*
X126384172Y-129939200D01*
X126384172Y-129939200D02*
X126341315Y-129896342D01*
X126341315Y-129896342D02*
X126298458Y-129810628D01*
X126298458Y-129810628D02*
X126298458Y-129553485D01*
X126298458Y-129553485D02*
X126341315Y-129467771D01*
X126341315Y-129467771D02*
X126384172Y-129424914D01*
X126384172Y-129424914D02*
X126469887Y-129382057D01*
X126469887Y-129382057D02*
X126641315Y-129382057D01*
X126641315Y-129382057D02*
X126727030Y-129424914D01*
X127027030Y-130324914D02*
X127069887Y-130282057D01*
X127069887Y-130282057D02*
X127155601Y-130153485D01*
X127155601Y-130153485D02*
X127198459Y-130067771D01*
X127198459Y-130067771D02*
X127241316Y-129939200D01*
X127241316Y-129939200D02*
X127284173Y-129724914D01*
X127284173Y-129724914D02*
X127284173Y-129553485D01*
X127284173Y-129553485D02*
X127241316Y-129339200D01*
X127241316Y-129339200D02*
X127198459Y-129210628D01*
X127198459Y-129210628D02*
X127155601Y-129124914D01*
X127155601Y-129124914D02*
X127069887Y-128996342D01*
X127069887Y-128996342D02*
X127027030Y-128953485D01*
X128355601Y-129167771D02*
X128398458Y-129124914D01*
X128398458Y-129124914D02*
X128484173Y-129082057D01*
X128484173Y-129082057D02*
X128698458Y-129082057D01*
X128698458Y-129082057D02*
X128784173Y-129124914D01*
X128784173Y-129124914D02*
X128827030Y-129167771D01*
X128827030Y-129167771D02*
X128869887Y-129253485D01*
X128869887Y-129253485D02*
X128869887Y-129339200D01*
X128869887Y-129339200D02*
X128827030Y-129467771D01*
X128827030Y-129467771D02*
X128312744Y-129982057D01*
X128312744Y-129982057D02*
X128869887Y-129982057D01*
X129427030Y-129082057D02*
X129512744Y-129082057D01*
X129512744Y-129082057D02*
X129598458Y-129124914D01*
X129598458Y-129124914D02*
X129641316Y-129167771D01*
X129641316Y-129167771D02*
X129684173Y-129253485D01*
X129684173Y-129253485D02*
X129727030Y-129424914D01*
X129727030Y-129424914D02*
X129727030Y-129639200D01*
X129727030Y-129639200D02*
X129684173Y-129810628D01*
X129684173Y-129810628D02*
X129641316Y-129896342D01*
X129641316Y-129896342D02*
X129598458Y-129939200D01*
X129598458Y-129939200D02*
X129512744Y-129982057D01*
X129512744Y-129982057D02*
X129427030Y-129982057D01*
X129427030Y-129982057D02*
X129341316Y-129939200D01*
X129341316Y-129939200D02*
X129298458Y-129896342D01*
X129298458Y-129896342D02*
X129255601Y-129810628D01*
X129255601Y-129810628D02*
X129212744Y-129639200D01*
X129212744Y-129639200D02*
X129212744Y-129424914D01*
X129212744Y-129424914D02*
X129255601Y-129253485D01*
X129255601Y-129253485D02*
X129298458Y-129167771D01*
X129298458Y-129167771D02*
X129341316Y-129124914D01*
X129341316Y-129124914D02*
X129427030Y-129082057D01*
X130069887Y-129167771D02*
X130112744Y-129124914D01*
X130112744Y-129124914D02*
X130198459Y-129082057D01*
X130198459Y-129082057D02*
X130412744Y-129082057D01*
X130412744Y-129082057D02*
X130498459Y-129124914D01*
X130498459Y-129124914D02*
X130541316Y-129167771D01*
X130541316Y-129167771D02*
X130584173Y-129253485D01*
X130584173Y-129253485D02*
X130584173Y-129339200D01*
X130584173Y-129339200D02*
X130541316Y-129467771D01*
X130541316Y-129467771D02*
X130027030Y-129982057D01*
X130027030Y-129982057D02*
X130584173Y-129982057D01*
X130884173Y-129082057D02*
X131441316Y-129082057D01*
X131441316Y-129082057D02*
X131141316Y-129424914D01*
X131141316Y-129424914D02*
X131269887Y-129424914D01*
X131269887Y-129424914D02*
X131355602Y-129467771D01*
X131355602Y-129467771D02*
X131398459Y-129510628D01*
X131398459Y-129510628D02*
X131441316Y-129596342D01*
X131441316Y-129596342D02*
X131441316Y-129810628D01*
X131441316Y-129810628D02*
X131398459Y-129896342D01*
X131398459Y-129896342D02*
X131355602Y-129939200D01*
X131355602Y-129939200D02*
X131269887Y-129982057D01*
X131269887Y-129982057D02*
X131012744Y-129982057D01*
X131012744Y-129982057D02*
X130927030Y-129939200D01*
X130927030Y-129939200D02*
X130884173Y-129896342D01*
X132512744Y-129982057D02*
X132512744Y-129082057D01*
X132512744Y-129082057D02*
X132727030Y-129082057D01*
X132727030Y-129082057D02*
X132855601Y-129124914D01*
X132855601Y-129124914D02*
X132941316Y-129210628D01*
X132941316Y-129210628D02*
X132984173Y-129296342D01*
X132984173Y-129296342D02*
X133027030Y-129467771D01*
X133027030Y-129467771D02*
X133027030Y-129596342D01*
X133027030Y-129596342D02*
X132984173Y-129767771D01*
X132984173Y-129767771D02*
X132941316Y-129853485D01*
X132941316Y-129853485D02*
X132855601Y-129939200D01*
X132855601Y-129939200D02*
X132727030Y-129982057D01*
X132727030Y-129982057D02*
X132512744Y-129982057D01*
X133412744Y-129982057D02*
X133412744Y-129382057D01*
X133412744Y-129553485D02*
X133455601Y-129467771D01*
X133455601Y-129467771D02*
X133498459Y-129424914D01*
X133498459Y-129424914D02*
X133584173Y-129382057D01*
X133584173Y-129382057D02*
X133669887Y-129382057D01*
X133969887Y-129896342D02*
X134012744Y-129939200D01*
X134012744Y-129939200D02*
X133969887Y-129982057D01*
X133969887Y-129982057D02*
X133927030Y-129939200D01*
X133927030Y-129939200D02*
X133969887Y-129896342D01*
X133969887Y-129896342D02*
X133969887Y-129982057D01*
X135555601Y-129124914D02*
X135469887Y-129082057D01*
X135469887Y-129082057D02*
X135341315Y-129082057D01*
X135341315Y-129082057D02*
X135212744Y-129124914D01*
X135212744Y-129124914D02*
X135127029Y-129210628D01*
X135127029Y-129210628D02*
X135084172Y-129296342D01*
X135084172Y-129296342D02*
X135041315Y-129467771D01*
X135041315Y-129467771D02*
X135041315Y-129596342D01*
X135041315Y-129596342D02*
X135084172Y-129767771D01*
X135084172Y-129767771D02*
X135127029Y-129853485D01*
X135127029Y-129853485D02*
X135212744Y-129939200D01*
X135212744Y-129939200D02*
X135341315Y-129982057D01*
X135341315Y-129982057D02*
X135427029Y-129982057D01*
X135427029Y-129982057D02*
X135555601Y-129939200D01*
X135555601Y-129939200D02*
X135598458Y-129896342D01*
X135598458Y-129896342D02*
X135598458Y-129596342D01*
X135598458Y-129596342D02*
X135427029Y-129596342D01*
X136369887Y-129382057D02*
X136369887Y-129982057D01*
X135984172Y-129382057D02*
X135984172Y-129853485D01*
X135984172Y-129853485D02*
X136027029Y-129939200D01*
X136027029Y-129939200D02*
X136112744Y-129982057D01*
X136112744Y-129982057D02*
X136241315Y-129982057D01*
X136241315Y-129982057D02*
X136327029Y-129939200D01*
X136327029Y-129939200D02*
X136369887Y-129896342D01*
X136755601Y-129939200D02*
X136841315Y-129982057D01*
X136841315Y-129982057D02*
X137012744Y-129982057D01*
X137012744Y-129982057D02*
X137098458Y-129939200D01*
X137098458Y-129939200D02*
X137141315Y-129853485D01*
X137141315Y-129853485D02*
X137141315Y-129810628D01*
X137141315Y-129810628D02*
X137098458Y-129724914D01*
X137098458Y-129724914D02*
X137012744Y-129682057D01*
X137012744Y-129682057D02*
X136884173Y-129682057D01*
X136884173Y-129682057D02*
X136798458Y-129639200D01*
X136798458Y-129639200D02*
X136755601Y-129553485D01*
X136755601Y-129553485D02*
X136755601Y-129510628D01*
X136755601Y-129510628D02*
X136798458Y-129424914D01*
X136798458Y-129424914D02*
X136884173Y-129382057D01*
X136884173Y-129382057D02*
X137012744Y-129382057D01*
X137012744Y-129382057D02*
X137098458Y-129424914D01*
X137527029Y-129982057D02*
X137527029Y-129382057D01*
X137527029Y-129467771D02*
X137569886Y-129424914D01*
X137569886Y-129424914D02*
X137655601Y-129382057D01*
X137655601Y-129382057D02*
X137784172Y-129382057D01*
X137784172Y-129382057D02*
X137869886Y-129424914D01*
X137869886Y-129424914D02*
X137912744Y-129510628D01*
X137912744Y-129510628D02*
X137912744Y-129982057D01*
X137912744Y-129510628D02*
X137955601Y-129424914D01*
X137955601Y-129424914D02*
X138041315Y-129382057D01*
X138041315Y-129382057D02*
X138169886Y-129382057D01*
X138169886Y-129382057D02*
X138255601Y-129424914D01*
X138255601Y-129424914D02*
X138298458Y-129510628D01*
X138298458Y-129510628D02*
X138298458Y-129982057D01*
X139112744Y-129982057D02*
X139112744Y-129510628D01*
X139112744Y-129510628D02*
X139069886Y-129424914D01*
X139069886Y-129424914D02*
X138984172Y-129382057D01*
X138984172Y-129382057D02*
X138812744Y-129382057D01*
X138812744Y-129382057D02*
X138727029Y-129424914D01*
X139112744Y-129939200D02*
X139027029Y-129982057D01*
X139027029Y-129982057D02*
X138812744Y-129982057D01*
X138812744Y-129982057D02*
X138727029Y-129939200D01*
X138727029Y-129939200D02*
X138684172Y-129853485D01*
X138684172Y-129853485D02*
X138684172Y-129767771D01*
X138684172Y-129767771D02*
X138727029Y-129682057D01*
X138727029Y-129682057D02*
X138812744Y-129639200D01*
X138812744Y-129639200D02*
X139027029Y-129639200D01*
X139027029Y-129639200D02*
X139112744Y-129596342D01*
X139541315Y-129382057D02*
X139541315Y-129982057D01*
X139541315Y-129467771D02*
X139584172Y-129424914D01*
X139584172Y-129424914D02*
X139669887Y-129382057D01*
X139669887Y-129382057D02*
X139798458Y-129382057D01*
X139798458Y-129382057D02*
X139884172Y-129424914D01*
X139884172Y-129424914D02*
X139927030Y-129510628D01*
X139927030Y-129510628D02*
X139927030Y-129982057D01*
X126091541Y-111823152D02*
X126615350Y-111823152D01*
X126615350Y-111823152D02*
X126091541Y-112489819D01*
X126091541Y-112489819D02*
X126615350Y-112489819D01*
X126948684Y-112204104D02*
X127424874Y-112204104D01*
X126853446Y-112489819D02*
X127186779Y-111489819D01*
X127186779Y-111489819D02*
X127520112Y-112489819D01*
X127805827Y-112204104D02*
X128282017Y-112204104D01*
X127710589Y-112489819D02*
X128043922Y-111489819D01*
X128043922Y-111489819D02*
X128377255Y-112489819D01*
X128710589Y-111823152D02*
X128710589Y-112823152D01*
X128710589Y-111870771D02*
X128805827Y-111823152D01*
X128805827Y-111823152D02*
X128996303Y-111823152D01*
X128996303Y-111823152D02*
X129091541Y-111870771D01*
X129091541Y-111870771D02*
X129139160Y-111918390D01*
X129139160Y-111918390D02*
X129186779Y-112013628D01*
X129186779Y-112013628D02*
X129186779Y-112299342D01*
X129186779Y-112299342D02*
X129139160Y-112394580D01*
X129139160Y-112394580D02*
X129091541Y-112442200D01*
X129091541Y-112442200D02*
X128996303Y-112489819D01*
X128996303Y-112489819D02*
X128805827Y-112489819D01*
X128805827Y-112489819D02*
X128710589Y-112442200D01*
X129615351Y-111823152D02*
X129615351Y-112823152D01*
X129615351Y-111870771D02*
X129710589Y-111823152D01*
X129710589Y-111823152D02*
X129901065Y-111823152D01*
X129901065Y-111823152D02*
X129996303Y-111870771D01*
X129996303Y-111870771D02*
X130043922Y-111918390D01*
X130043922Y-111918390D02*
X130091541Y-112013628D01*
X130091541Y-112013628D02*
X130091541Y-112299342D01*
X130091541Y-112299342D02*
X130043922Y-112394580D01*
X130043922Y-112394580D02*
X129996303Y-112442200D01*
X129996303Y-112442200D02*
X129901065Y-112489819D01*
X129901065Y-112489819D02*
X129710589Y-112489819D01*
X129710589Y-112489819D02*
X129615351Y-112442200D01*
X130377256Y-111823152D02*
X130758208Y-111823152D01*
X130520113Y-111489819D02*
X130520113Y-112346961D01*
X130520113Y-112346961D02*
X130567732Y-112442200D01*
X130567732Y-112442200D02*
X130662970Y-112489819D01*
X130662970Y-112489819D02*
X130758208Y-112489819D01*
X136737642Y-108529097D02*
G75*
G02*
X137299999Y-109719999I67709J-696254D01*
G01*
X135447543Y-108758627D02*
G75*
G02*
X136511414Y-110337846I377978J-893326D01*
G01*
X135611541Y-111823152D02*
X136135350Y-111823152D01*
X136135350Y-111823152D02*
X135611541Y-112489819D01*
X135611541Y-112489819D02*
X136135350Y-112489819D01*
X136516303Y-111489819D02*
X136516303Y-112299342D01*
X136516303Y-112299342D02*
X136563922Y-112394580D01*
X136563922Y-112394580D02*
X136611541Y-112442200D01*
X136611541Y-112442200D02*
X136706779Y-112489819D01*
X136706779Y-112489819D02*
X136897255Y-112489819D01*
X136897255Y-112489819D02*
X136992493Y-112442200D01*
X136992493Y-112442200D02*
X137040112Y-112394580D01*
X137040112Y-112394580D02*
X137087731Y-112299342D01*
X137087731Y-112299342D02*
X137087731Y-111489819D01*
X137563922Y-111823152D02*
X137563922Y-112823152D01*
X137563922Y-111870771D02*
X137659160Y-111823152D01*
X137659160Y-111823152D02*
X137849636Y-111823152D01*
X137849636Y-111823152D02*
X137944874Y-111870771D01*
X137944874Y-111870771D02*
X137992493Y-111918390D01*
X137992493Y-111918390D02*
X138040112Y-112013628D01*
X138040112Y-112013628D02*
X138040112Y-112299342D01*
X138040112Y-112299342D02*
X137992493Y-112394580D01*
X137992493Y-112394580D02*
X137944874Y-112442200D01*
X137944874Y-112442200D02*
X137849636Y-112489819D01*
X137849636Y-112489819D02*
X137659160Y-112489819D01*
X137659160Y-112489819D02*
X137563922Y-112442200D01*
X138325827Y-111823152D02*
X138706779Y-111823152D01*
X138468684Y-111489819D02*
X138468684Y-112346961D01*
X138468684Y-112346961D02*
X138516303Y-112442200D01*
X138516303Y-112442200D02*
X138611541Y-112489819D01*
X138611541Y-112489819D02*
X138706779Y-112489819D01*
X130361541Y-109019819D02*
X131028207Y-109019819D01*
X131028207Y-109019819D02*
X130361541Y-110019819D01*
X130361541Y-110019819D02*
X131028207Y-110019819D01*
X131409160Y-110019819D02*
X131409160Y-109353152D01*
X131409160Y-109019819D02*
X131361541Y-109067438D01*
X131361541Y-109067438D02*
X131409160Y-109115057D01*
X131409160Y-109115057D02*
X131456779Y-109067438D01*
X131456779Y-109067438D02*
X131409160Y-109019819D01*
X131409160Y-109019819D02*
X131409160Y-109115057D01*
X131885350Y-110019819D02*
X131885350Y-109353152D01*
X131885350Y-109019819D02*
X131837731Y-109067438D01*
X131837731Y-109067438D02*
X131885350Y-109115057D01*
X131885350Y-109115057D02*
X131932969Y-109067438D01*
X131932969Y-109067438D02*
X131885350Y-109019819D01*
X131885350Y-109019819D02*
X131885350Y-109115057D01*
X132361540Y-109353152D02*
X132361540Y-110353152D01*
X132361540Y-109400771D02*
X132456778Y-109353152D01*
X132456778Y-109353152D02*
X132647254Y-109353152D01*
X132647254Y-109353152D02*
X132742492Y-109400771D01*
X132742492Y-109400771D02*
X132790111Y-109448390D01*
X132790111Y-109448390D02*
X132837730Y-109543628D01*
X132837730Y-109543628D02*
X132837730Y-109829342D01*
X132837730Y-109829342D02*
X132790111Y-109924580D01*
X132790111Y-109924580D02*
X132742492Y-109972200D01*
X132742492Y-109972200D02*
X132647254Y-110019819D01*
X132647254Y-110019819D02*
X132456778Y-110019819D01*
X132456778Y-110019819D02*
X132361540Y-109972200D01*
X133123445Y-109353152D02*
X133504397Y-109353152D01*
X133266302Y-109019819D02*
X133266302Y-109876961D01*
X133266302Y-109876961D02*
X133313921Y-109972200D01*
X133313921Y-109972200D02*
X133409159Y-110019819D01*
X133409159Y-110019819D02*
X133504397Y-110019819D01*
D11*
X139180718Y-125752281D02*
X140047384Y-125752281D01*
X139180718Y-126309424D02*
X139861670Y-126309424D01*
X139861670Y-126309424D02*
X139985480Y-126247519D01*
X139985480Y-126247519D02*
X140047384Y-126123709D01*
X140047384Y-126123709D02*
X140047384Y-125937995D01*
X140047384Y-125937995D02*
X139985480Y-125814186D01*
X139985480Y-125814186D02*
X139923575Y-125752281D01*
X140047384Y-125133234D02*
X138747384Y-125133234D01*
X138747384Y-125133234D02*
X138747384Y-124637996D01*
X138747384Y-124637996D02*
X138809289Y-124514186D01*
X138809289Y-124514186D02*
X138871194Y-124452281D01*
X138871194Y-124452281D02*
X138995003Y-124390377D01*
X138995003Y-124390377D02*
X139180718Y-124390377D01*
X139180718Y-124390377D02*
X139304527Y-124452281D01*
X139304527Y-124452281D02*
X139366432Y-124514186D01*
X139366432Y-124514186D02*
X139428337Y-124637996D01*
X139428337Y-124637996D02*
X139428337Y-125133234D01*
X140047384Y-123833234D02*
X139180718Y-123833234D01*
X138747384Y-123833234D02*
X138809289Y-123895138D01*
X138809289Y-123895138D02*
X138871194Y-123833234D01*
X138871194Y-123833234D02*
X138809289Y-123771329D01*
X138809289Y-123771329D02*
X138747384Y-123833234D01*
X138747384Y-123833234D02*
X138871194Y-123833234D01*
X139985480Y-122657043D02*
X140047384Y-122780852D01*
X140047384Y-122780852D02*
X140047384Y-123028471D01*
X140047384Y-123028471D02*
X139985480Y-123152281D01*
X139985480Y-123152281D02*
X139923575Y-123214186D01*
X139923575Y-123214186D02*
X139799765Y-123276090D01*
X139799765Y-123276090D02*
X139428337Y-123276090D01*
X139428337Y-123276090D02*
X139304527Y-123214186D01*
X139304527Y-123214186D02*
X139242622Y-123152281D01*
X139242622Y-123152281D02*
X139180718Y-123028471D01*
X139180718Y-123028471D02*
X139180718Y-122780852D01*
X139180718Y-122780852D02*
X139242622Y-122657043D01*
X140047384Y-121914185D02*
X139985480Y-122037995D01*
X139985480Y-122037995D02*
X139923575Y-122099900D01*
X139923575Y-122099900D02*
X139799765Y-122161804D01*
X139799765Y-122161804D02*
X139428337Y-122161804D01*
X139428337Y-122161804D02*
X139304527Y-122099900D01*
X139304527Y-122099900D02*
X139242622Y-122037995D01*
X139242622Y-122037995D02*
X139180718Y-121914185D01*
X139180718Y-121914185D02*
X139180718Y-121728471D01*
X139180718Y-121728471D02*
X139242622Y-121604662D01*
X139242622Y-121604662D02*
X139304527Y-121542757D01*
X139304527Y-121542757D02*
X139428337Y-121480852D01*
X139428337Y-121480852D02*
X139799765Y-121480852D01*
X139799765Y-121480852D02*
X139923575Y-121542757D01*
X139923575Y-121542757D02*
X139985480Y-121604662D01*
X139985480Y-121604662D02*
X140047384Y-121728471D01*
X140047384Y-121728471D02*
X140047384Y-121914185D01*
X140047384Y-120923710D02*
X138747384Y-120923710D01*
X138747384Y-120923710D02*
X138747384Y-120614186D01*
X138747384Y-120614186D02*
X138809289Y-120428472D01*
X138809289Y-120428472D02*
X138933099Y-120304662D01*
X138933099Y-120304662D02*
X139056908Y-120242757D01*
X139056908Y-120242757D02*
X139304527Y-120180853D01*
X139304527Y-120180853D02*
X139490241Y-120180853D01*
X139490241Y-120180853D02*
X139737860Y-120242757D01*
X139737860Y-120242757D02*
X139861670Y-120304662D01*
X139861670Y-120304662D02*
X139985480Y-120428472D01*
X139985480Y-120428472D02*
X140047384Y-120614186D01*
X140047384Y-120614186D02*
X140047384Y-120923710D01*
X140047384Y-119623710D02*
X139180718Y-119623710D01*
X139428337Y-119623710D02*
X139304527Y-119561805D01*
X139304527Y-119561805D02*
X139242622Y-119499900D01*
X139242622Y-119499900D02*
X139180718Y-119376091D01*
X139180718Y-119376091D02*
X139180718Y-119252281D01*
X140047384Y-118818948D02*
X139180718Y-118818948D01*
X138747384Y-118818948D02*
X138809289Y-118880852D01*
X138809289Y-118880852D02*
X138871194Y-118818948D01*
X138871194Y-118818948D02*
X138809289Y-118757043D01*
X138809289Y-118757043D02*
X138747384Y-118818948D01*
X138747384Y-118818948D02*
X138871194Y-118818948D01*
X139180718Y-118323709D02*
X140047384Y-118014185D01*
X140047384Y-118014185D02*
X139180718Y-117704662D01*
X139985480Y-116714186D02*
X140047384Y-116837995D01*
X140047384Y-116837995D02*
X140047384Y-117085614D01*
X140047384Y-117085614D02*
X139985480Y-117209424D01*
X139985480Y-117209424D02*
X139861670Y-117271328D01*
X139861670Y-117271328D02*
X139366432Y-117271328D01*
X139366432Y-117271328D02*
X139242622Y-117209424D01*
X139242622Y-117209424D02*
X139180718Y-117085614D01*
X139180718Y-117085614D02*
X139180718Y-116837995D01*
X139180718Y-116837995D02*
X139242622Y-116714186D01*
X139242622Y-116714186D02*
X139366432Y-116652281D01*
X139366432Y-116652281D02*
X139490241Y-116652281D01*
X139490241Y-116652281D02*
X139614051Y-117271328D01*
D10*
X131983333Y-78207580D02*
X131935714Y-78255200D01*
X131935714Y-78255200D02*
X131792857Y-78302819D01*
X131792857Y-78302819D02*
X131697619Y-78302819D01*
X131697619Y-78302819D02*
X131554762Y-78255200D01*
X131554762Y-78255200D02*
X131459524Y-78159961D01*
X131459524Y-78159961D02*
X131411905Y-78064723D01*
X131411905Y-78064723D02*
X131364286Y-77874247D01*
X131364286Y-77874247D02*
X131364286Y-77731390D01*
X131364286Y-77731390D02*
X131411905Y-77540914D01*
X131411905Y-77540914D02*
X131459524Y-77445676D01*
X131459524Y-77445676D02*
X131554762Y-77350438D01*
X131554762Y-77350438D02*
X131697619Y-77302819D01*
X131697619Y-77302819D02*
X131792857Y-77302819D01*
X131792857Y-77302819D02*
X131935714Y-77350438D01*
X131935714Y-77350438D02*
X131983333Y-77398057D01*
X132364286Y-77398057D02*
X132411905Y-77350438D01*
X132411905Y-77350438D02*
X132507143Y-77302819D01*
X132507143Y-77302819D02*
X132745238Y-77302819D01*
X132745238Y-77302819D02*
X132840476Y-77350438D01*
X132840476Y-77350438D02*
X132888095Y-77398057D01*
X132888095Y-77398057D02*
X132935714Y-77493295D01*
X132935714Y-77493295D02*
X132935714Y-77588533D01*
X132935714Y-77588533D02*
X132888095Y-77731390D01*
X132888095Y-77731390D02*
X132316667Y-78302819D01*
X132316667Y-78302819D02*
X132935714Y-78302819D01*
X139773333Y-76354580D02*
X139725714Y-76402200D01*
X139725714Y-76402200D02*
X139582857Y-76449819D01*
X139582857Y-76449819D02*
X139487619Y-76449819D01*
X139487619Y-76449819D02*
X139344762Y-76402200D01*
X139344762Y-76402200D02*
X139249524Y-76306961D01*
X139249524Y-76306961D02*
X139201905Y-76211723D01*
X139201905Y-76211723D02*
X139154286Y-76021247D01*
X139154286Y-76021247D02*
X139154286Y-75878390D01*
X139154286Y-75878390D02*
X139201905Y-75687914D01*
X139201905Y-75687914D02*
X139249524Y-75592676D01*
X139249524Y-75592676D02*
X139344762Y-75497438D01*
X139344762Y-75497438D02*
X139487619Y-75449819D01*
X139487619Y-75449819D02*
X139582857Y-75449819D01*
X139582857Y-75449819D02*
X139725714Y-75497438D01*
X139725714Y-75497438D02*
X139773333Y-75545057D01*
X140630476Y-75783152D02*
X140630476Y-76449819D01*
X140392381Y-75402200D02*
X140154286Y-76116485D01*
X140154286Y-76116485D02*
X140773333Y-76116485D01*
X179269580Y-79656666D02*
X179317200Y-79704285D01*
X179317200Y-79704285D02*
X179364819Y-79847142D01*
X179364819Y-79847142D02*
X179364819Y-79942380D01*
X179364819Y-79942380D02*
X179317200Y-80085237D01*
X179317200Y-80085237D02*
X179221961Y-80180475D01*
X179221961Y-80180475D02*
X179126723Y-80228094D01*
X179126723Y-80228094D02*
X178936247Y-80275713D01*
X178936247Y-80275713D02*
X178793390Y-80275713D01*
X178793390Y-80275713D02*
X178602914Y-80228094D01*
X178602914Y-80228094D02*
X178507676Y-80180475D01*
X178507676Y-80180475D02*
X178412438Y-80085237D01*
X178412438Y-80085237D02*
X178364819Y-79942380D01*
X178364819Y-79942380D02*
X178364819Y-79847142D01*
X178364819Y-79847142D02*
X178412438Y-79704285D01*
X178412438Y-79704285D02*
X178460057Y-79656666D01*
X178793390Y-79085237D02*
X178745771Y-79180475D01*
X178745771Y-79180475D02*
X178698152Y-79228094D01*
X178698152Y-79228094D02*
X178602914Y-79275713D01*
X178602914Y-79275713D02*
X178555295Y-79275713D01*
X178555295Y-79275713D02*
X178460057Y-79228094D01*
X178460057Y-79228094D02*
X178412438Y-79180475D01*
X178412438Y-79180475D02*
X178364819Y-79085237D01*
X178364819Y-79085237D02*
X178364819Y-78894761D01*
X178364819Y-78894761D02*
X178412438Y-78799523D01*
X178412438Y-78799523D02*
X178460057Y-78751904D01*
X178460057Y-78751904D02*
X178555295Y-78704285D01*
X178555295Y-78704285D02*
X178602914Y-78704285D01*
X178602914Y-78704285D02*
X178698152Y-78751904D01*
X178698152Y-78751904D02*
X178745771Y-78799523D01*
X178745771Y-78799523D02*
X178793390Y-78894761D01*
X178793390Y-78894761D02*
X178793390Y-79085237D01*
X178793390Y-79085237D02*
X178841009Y-79180475D01*
X178841009Y-79180475D02*
X178888628Y-79228094D01*
X178888628Y-79228094D02*
X178983866Y-79275713D01*
X178983866Y-79275713D02*
X179174342Y-79275713D01*
X179174342Y-79275713D02*
X179269580Y-79228094D01*
X179269580Y-79228094D02*
X179317200Y-79180475D01*
X179317200Y-79180475D02*
X179364819Y-79085237D01*
X179364819Y-79085237D02*
X179364819Y-78894761D01*
X179364819Y-78894761D02*
X179317200Y-78799523D01*
X179317200Y-78799523D02*
X179269580Y-78751904D01*
X179269580Y-78751904D02*
X179174342Y-78704285D01*
X179174342Y-78704285D02*
X178983866Y-78704285D01*
X178983866Y-78704285D02*
X178888628Y-78751904D01*
X178888628Y-78751904D02*
X178841009Y-78799523D01*
X178841009Y-78799523D02*
X178793390Y-78894761D01*
X131983333Y-76259580D02*
X131935714Y-76307200D01*
X131935714Y-76307200D02*
X131792857Y-76354819D01*
X131792857Y-76354819D02*
X131697619Y-76354819D01*
X131697619Y-76354819D02*
X131554762Y-76307200D01*
X131554762Y-76307200D02*
X131459524Y-76211961D01*
X131459524Y-76211961D02*
X131411905Y-76116723D01*
X131411905Y-76116723D02*
X131364286Y-75926247D01*
X131364286Y-75926247D02*
X131364286Y-75783390D01*
X131364286Y-75783390D02*
X131411905Y-75592914D01*
X131411905Y-75592914D02*
X131459524Y-75497676D01*
X131459524Y-75497676D02*
X131554762Y-75402438D01*
X131554762Y-75402438D02*
X131697619Y-75354819D01*
X131697619Y-75354819D02*
X131792857Y-75354819D01*
X131792857Y-75354819D02*
X131935714Y-75402438D01*
X131935714Y-75402438D02*
X131983333Y-75450057D01*
X132935714Y-76354819D02*
X132364286Y-76354819D01*
X132650000Y-76354819D02*
X132650000Y-75354819D01*
X132650000Y-75354819D02*
X132554762Y-75497676D01*
X132554762Y-75497676D02*
X132459524Y-75592914D01*
X132459524Y-75592914D02*
X132364286Y-75640533D01*
X179269580Y-75616666D02*
X179317200Y-75664285D01*
X179317200Y-75664285D02*
X179364819Y-75807142D01*
X179364819Y-75807142D02*
X179364819Y-75902380D01*
X179364819Y-75902380D02*
X179317200Y-76045237D01*
X179317200Y-76045237D02*
X179221961Y-76140475D01*
X179221961Y-76140475D02*
X179126723Y-76188094D01*
X179126723Y-76188094D02*
X178936247Y-76235713D01*
X178936247Y-76235713D02*
X178793390Y-76235713D01*
X178793390Y-76235713D02*
X178602914Y-76188094D01*
X178602914Y-76188094D02*
X178507676Y-76140475D01*
X178507676Y-76140475D02*
X178412438Y-76045237D01*
X178412438Y-76045237D02*
X178364819Y-75902380D01*
X178364819Y-75902380D02*
X178364819Y-75807142D01*
X178364819Y-75807142D02*
X178412438Y-75664285D01*
X178412438Y-75664285D02*
X178460057Y-75616666D01*
X178364819Y-75283332D02*
X178364819Y-74616666D01*
X178364819Y-74616666D02*
X179364819Y-75045237D01*
X139773333Y-78019580D02*
X139725714Y-78067200D01*
X139725714Y-78067200D02*
X139582857Y-78114819D01*
X139582857Y-78114819D02*
X139487619Y-78114819D01*
X139487619Y-78114819D02*
X139344762Y-78067200D01*
X139344762Y-78067200D02*
X139249524Y-77971961D01*
X139249524Y-77971961D02*
X139201905Y-77876723D01*
X139201905Y-77876723D02*
X139154286Y-77686247D01*
X139154286Y-77686247D02*
X139154286Y-77543390D01*
X139154286Y-77543390D02*
X139201905Y-77352914D01*
X139201905Y-77352914D02*
X139249524Y-77257676D01*
X139249524Y-77257676D02*
X139344762Y-77162438D01*
X139344762Y-77162438D02*
X139487619Y-77114819D01*
X139487619Y-77114819D02*
X139582857Y-77114819D01*
X139582857Y-77114819D02*
X139725714Y-77162438D01*
X139725714Y-77162438D02*
X139773333Y-77210057D01*
X140678095Y-77114819D02*
X140201905Y-77114819D01*
X140201905Y-77114819D02*
X140154286Y-77591009D01*
X140154286Y-77591009D02*
X140201905Y-77543390D01*
X140201905Y-77543390D02*
X140297143Y-77495771D01*
X140297143Y-77495771D02*
X140535238Y-77495771D01*
X140535238Y-77495771D02*
X140630476Y-77543390D01*
X140630476Y-77543390D02*
X140678095Y-77591009D01*
X140678095Y-77591009D02*
X140725714Y-77686247D01*
X140725714Y-77686247D02*
X140725714Y-77924342D01*
X140725714Y-77924342D02*
X140678095Y-78019580D01*
X140678095Y-78019580D02*
X140630476Y-78067200D01*
X140630476Y-78067200D02*
X140535238Y-78114819D01*
X140535238Y-78114819D02*
X140297143Y-78114819D01*
X140297143Y-78114819D02*
X140201905Y-78067200D01*
X140201905Y-78067200D02*
X140154286Y-78019580D01*
X128683333Y-81232580D02*
X128635714Y-81280200D01*
X128635714Y-81280200D02*
X128492857Y-81327819D01*
X128492857Y-81327819D02*
X128397619Y-81327819D01*
X128397619Y-81327819D02*
X128254762Y-81280200D01*
X128254762Y-81280200D02*
X128159524Y-81184961D01*
X128159524Y-81184961D02*
X128111905Y-81089723D01*
X128111905Y-81089723D02*
X128064286Y-80899247D01*
X128064286Y-80899247D02*
X128064286Y-80756390D01*
X128064286Y-80756390D02*
X128111905Y-80565914D01*
X128111905Y-80565914D02*
X128159524Y-80470676D01*
X128159524Y-80470676D02*
X128254762Y-80375438D01*
X128254762Y-80375438D02*
X128397619Y-80327819D01*
X128397619Y-80327819D02*
X128492857Y-80327819D01*
X128492857Y-80327819D02*
X128635714Y-80375438D01*
X128635714Y-80375438D02*
X128683333Y-80423057D01*
X129016667Y-80327819D02*
X129635714Y-80327819D01*
X129635714Y-80327819D02*
X129302381Y-80708771D01*
X129302381Y-80708771D02*
X129445238Y-80708771D01*
X129445238Y-80708771D02*
X129540476Y-80756390D01*
X129540476Y-80756390D02*
X129588095Y-80804009D01*
X129588095Y-80804009D02*
X129635714Y-80899247D01*
X129635714Y-80899247D02*
X129635714Y-81137342D01*
X129635714Y-81137342D02*
X129588095Y-81232580D01*
X129588095Y-81232580D02*
X129540476Y-81280200D01*
X129540476Y-81280200D02*
X129445238Y-81327819D01*
X129445238Y-81327819D02*
X129159524Y-81327819D01*
X129159524Y-81327819D02*
X129064286Y-81280200D01*
X129064286Y-81280200D02*
X129016667Y-81232580D01*
X117518333Y-81062580D02*
X117470714Y-81110200D01*
X117470714Y-81110200D02*
X117327857Y-81157819D01*
X117327857Y-81157819D02*
X117232619Y-81157819D01*
X117232619Y-81157819D02*
X117089762Y-81110200D01*
X117089762Y-81110200D02*
X116994524Y-81014961D01*
X116994524Y-81014961D02*
X116946905Y-80919723D01*
X116946905Y-80919723D02*
X116899286Y-80729247D01*
X116899286Y-80729247D02*
X116899286Y-80586390D01*
X116899286Y-80586390D02*
X116946905Y-80395914D01*
X116946905Y-80395914D02*
X116994524Y-80300676D01*
X116994524Y-80300676D02*
X117089762Y-80205438D01*
X117089762Y-80205438D02*
X117232619Y-80157819D01*
X117232619Y-80157819D02*
X117327857Y-80157819D01*
X117327857Y-80157819D02*
X117470714Y-80205438D01*
X117470714Y-80205438D02*
X117518333Y-80253057D01*
X118375476Y-80157819D02*
X118185000Y-80157819D01*
X118185000Y-80157819D02*
X118089762Y-80205438D01*
X118089762Y-80205438D02*
X118042143Y-80253057D01*
X118042143Y-80253057D02*
X117946905Y-80395914D01*
X117946905Y-80395914D02*
X117899286Y-80586390D01*
X117899286Y-80586390D02*
X117899286Y-80967342D01*
X117899286Y-80967342D02*
X117946905Y-81062580D01*
X117946905Y-81062580D02*
X117994524Y-81110200D01*
X117994524Y-81110200D02*
X118089762Y-81157819D01*
X118089762Y-81157819D02*
X118280238Y-81157819D01*
X118280238Y-81157819D02*
X118375476Y-81110200D01*
X118375476Y-81110200D02*
X118423095Y-81062580D01*
X118423095Y-81062580D02*
X118470714Y-80967342D01*
X118470714Y-80967342D02*
X118470714Y-80729247D01*
X118470714Y-80729247D02*
X118423095Y-80634009D01*
X118423095Y-80634009D02*
X118375476Y-80586390D01*
X118375476Y-80586390D02*
X118280238Y-80538771D01*
X118280238Y-80538771D02*
X118089762Y-80538771D01*
X118089762Y-80538771D02*
X117994524Y-80586390D01*
X117994524Y-80586390D02*
X117946905Y-80634009D01*
X117946905Y-80634009D02*
X117899286Y-80729247D01*
D12*
X132993708Y-117094547D02*
X132850851Y-117023118D01*
X132850851Y-117023118D02*
X132636565Y-117023118D01*
X132636565Y-117023118D02*
X132422279Y-117094547D01*
X132422279Y-117094547D02*
X132279422Y-117237404D01*
X132279422Y-117237404D02*
X132207993Y-117380261D01*
X132207993Y-117380261D02*
X132136565Y-117665975D01*
X132136565Y-117665975D02*
X132136565Y-117880261D01*
X132136565Y-117880261D02*
X132207993Y-118165975D01*
X132207993Y-118165975D02*
X132279422Y-118308832D01*
X132279422Y-118308832D02*
X132422279Y-118451690D01*
X132422279Y-118451690D02*
X132636565Y-118523118D01*
X132636565Y-118523118D02*
X132779422Y-118523118D01*
X132779422Y-118523118D02*
X132993708Y-118451690D01*
X132993708Y-118451690D02*
X133065136Y-118380261D01*
X133065136Y-118380261D02*
X133065136Y-117880261D01*
X133065136Y-117880261D02*
X132779422Y-117880261D01*
X133922279Y-117023118D02*
X133922279Y-117380261D01*
X133565136Y-117237404D02*
X133922279Y-117380261D01*
X133922279Y-117380261D02*
X134279422Y-117237404D01*
X133707993Y-117665975D02*
X133922279Y-117380261D01*
X133922279Y-117380261D02*
X134136565Y-117665975D01*
X135065136Y-117023118D02*
X135065136Y-117380261D01*
X134707993Y-117237404D02*
X135065136Y-117380261D01*
X135065136Y-117380261D02*
X135422279Y-117237404D01*
X134850850Y-117665975D02*
X135065136Y-117380261D01*
X135065136Y-117380261D02*
X135279422Y-117665975D01*
X136207993Y-117023118D02*
X136207993Y-117380261D01*
X135850850Y-117237404D02*
X136207993Y-117380261D01*
X136207993Y-117380261D02*
X136565136Y-117237404D01*
X135993707Y-117665975D02*
X136207993Y-117380261D01*
X136207993Y-117380261D02*
X136422279Y-117665975D01*
D10*
X117493333Y-76909819D02*
X117160000Y-76433628D01*
X116921905Y-76909819D02*
X116921905Y-75909819D01*
X116921905Y-75909819D02*
X117302857Y-75909819D01*
X117302857Y-75909819D02*
X117398095Y-75957438D01*
X117398095Y-75957438D02*
X117445714Y-76005057D01*
X117445714Y-76005057D02*
X117493333Y-76100295D01*
X117493333Y-76100295D02*
X117493333Y-76243152D01*
X117493333Y-76243152D02*
X117445714Y-76338390D01*
X117445714Y-76338390D02*
X117398095Y-76386009D01*
X117398095Y-76386009D02*
X117302857Y-76433628D01*
X117302857Y-76433628D02*
X116921905Y-76433628D01*
X118445714Y-76909819D02*
X117874286Y-76909819D01*
X118160000Y-76909819D02*
X118160000Y-75909819D01*
X118160000Y-75909819D02*
X118064762Y-76052676D01*
X118064762Y-76052676D02*
X117969524Y-76147914D01*
X117969524Y-76147914D02*
X117874286Y-76195533D01*
D13*
G36*
X177098960Y-128701566D02*
G01*
X177098960Y-128959076D01*
X177098960Y-131104999D01*
X173221040Y-131104999D01*
X173221040Y-128959076D01*
X173221040Y-127462653D01*
X174164292Y-127462653D01*
X174184320Y-127611437D01*
X174245837Y-127691551D01*
X174321660Y-127720164D01*
X174416080Y-127725886D01*
X175237253Y-127725886D01*
X174275880Y-128441194D01*
X174217225Y-128492696D01*
X174181459Y-128565657D01*
X174164292Y-128695843D01*
X174182890Y-128846058D01*
X174244406Y-128924742D01*
X174320229Y-128953354D01*
X174416080Y-128959076D01*
X175901059Y-128959076D01*
X176001202Y-128953354D01*
X176079886Y-128926172D01*
X176144263Y-128848919D01*
X176164292Y-128701566D01*
X176144263Y-128549921D01*
X176079886Y-128469806D01*
X176002632Y-128442624D01*
X175903920Y-128438333D01*
X175108498Y-128438333D01*
X176087039Y-127697274D01*
X176148555Y-127612868D01*
X176164292Y-127465514D01*
X176144263Y-127313869D01*
X176079886Y-127233755D01*
X176002632Y-127206573D01*
X175903920Y-127202281D01*
X174427525Y-127202281D01*
X174328813Y-127206573D01*
X174250129Y-127233755D01*
X174184320Y-127313869D01*
X174164292Y-127462653D01*
X173221040Y-127462653D01*
X173221040Y-125994842D01*
X174127096Y-125994842D01*
X174145604Y-126198973D01*
X174201130Y-126387903D01*
X174293673Y-126561634D01*
X174423233Y-126720164D01*
X174578723Y-126852227D01*
X174749056Y-126946559D01*
X174934231Y-127003157D01*
X175134249Y-127022024D01*
X175344013Y-127003426D01*
X175538398Y-126947632D01*
X175717403Y-126854642D01*
X175881030Y-126724456D01*
X176017475Y-126568519D01*
X176114936Y-126398275D01*
X176173412Y-126213726D01*
X176192904Y-126014870D01*
X176180505Y-125795509D01*
X176143309Y-125606668D01*
X176081316Y-125448347D01*
X176015150Y-125343197D01*
X175936824Y-125262367D01*
X175772303Y-125193697D01*
X175185751Y-125193697D01*
X175114220Y-125195128D01*
X175051273Y-125208003D01*
X174994049Y-125242338D01*
X174956853Y-125309577D01*
X174936824Y-125419735D01*
X174936824Y-125920450D01*
X174941116Y-125997703D01*
X174964006Y-126060650D01*
X175031245Y-126113583D01*
X175157139Y-126129320D01*
X175285894Y-126115014D01*
X175353133Y-126066373D01*
X175376023Y-126006287D01*
X175380315Y-125929034D01*
X175380315Y-125717302D01*
X175626381Y-125717302D01*
X175654278Y-125838905D01*
X175663577Y-126003426D01*
X175624235Y-126188690D01*
X175506209Y-126349634D01*
X175335966Y-126461222D01*
X175139971Y-126498418D01*
X174950057Y-126462653D01*
X174792332Y-126355357D01*
X174686109Y-126197274D01*
X174650701Y-126009148D01*
X174670730Y-125832467D01*
X174730815Y-125685829D01*
X174796624Y-125531323D01*
X174758712Y-125425457D01*
X174644979Y-125319591D01*
X174484750Y-125253783D01*
X174401774Y-125280965D01*
X174341688Y-125333898D01*
X174284464Y-125414012D01*
X174218298Y-125536687D01*
X174168584Y-125687260D01*
X174137468Y-125846416D01*
X174127096Y-125994842D01*
X173221040Y-125994842D01*
X173221040Y-125193697D01*
X173221040Y-124287641D01*
X175160000Y-122995001D01*
X177098960Y-124287641D01*
X177098960Y-125193697D01*
X177098960Y-126014870D01*
X177098960Y-128701566D01*
G37*
D14*
X132390580Y-78738000D02*
X132109420Y-78738000D01*
X132390580Y-79758000D02*
X132109420Y-79758000D01*
X139799419Y-73960000D02*
X140080581Y-73960000D01*
X139799419Y-74980000D02*
X140080581Y-74980000D01*
D15*
X134225000Y-73775000D02*
X135425000Y-73775000D01*
X135775000Y-73925000D02*
X136375000Y-73925000D01*
X135775000Y-76825000D02*
X135775000Y-73925000D01*
X136375000Y-73925000D02*
X136375000Y-76825000D01*
X136375000Y-76825000D02*
X135775000Y-76825000D01*
D14*
X176970000Y-79349419D02*
X176970000Y-79630581D01*
X177990000Y-79349419D02*
X177990000Y-79630581D01*
X168790000Y-74110000D02*
X168790000Y-75369999D01*
X168790000Y-80930000D02*
X168790000Y-79670001D01*
X172550000Y-74109999D02*
X168790000Y-74110000D01*
X172550000Y-80930001D02*
X168790000Y-80930000D01*
X174070000Y-81160000D02*
X173590000Y-81160000D01*
X173830000Y-80830000D01*
X174070000Y-81160000D01*
G36*
X174070000Y-81160000D02*
G01*
X173590000Y-81160000D01*
X173830000Y-80830000D01*
X174070000Y-81160000D01*
G37*
X132365580Y-73965000D02*
X132084420Y-73965000D01*
X132365580Y-74985000D02*
X132084420Y-74985000D01*
X176970000Y-75309419D02*
X176970000Y-75590581D01*
X177990000Y-75309419D02*
X177990000Y-75590581D01*
X139799419Y-78500000D02*
X140080581Y-78500000D01*
X139799419Y-79520000D02*
X140080581Y-79520000D01*
X115265000Y-83675000D02*
X115565000Y-83675000D01*
X115265000Y-104675000D02*
X115265000Y-83675000D01*
X115265000Y-104675000D02*
X115565000Y-104675000D01*
X117665000Y-83675000D02*
X118065000Y-83675000D01*
X117665000Y-104675000D02*
X118065000Y-104675000D01*
X117932000Y-101668000D02*
X115265000Y-101668000D01*
X117932000Y-104675000D02*
X117932000Y-101668000D01*
X120265000Y-83675000D02*
X120665000Y-83675000D01*
X120265000Y-104675000D02*
X120665000Y-104675000D01*
X122765000Y-83675000D02*
X123165000Y-83675000D01*
X122765000Y-104675000D02*
X123165000Y-104675000D01*
X125365000Y-83675000D02*
X125765000Y-83675000D01*
X125365000Y-104675000D02*
X125765000Y-104675000D01*
X127865000Y-83675000D02*
X128265000Y-83675000D01*
X127865000Y-104675000D02*
X128265000Y-104675000D01*
X130365000Y-83675000D02*
X130765000Y-83675000D01*
X130365000Y-104675000D02*
X130765000Y-104675000D01*
X132965000Y-83675000D02*
X133365000Y-83675000D01*
X132965000Y-104675000D02*
X133365000Y-104675000D01*
X135465000Y-83675000D02*
X135865000Y-83675000D01*
X135465000Y-104675000D02*
X135865000Y-104675000D01*
X138065000Y-83675000D02*
X138465000Y-83675000D01*
X138065000Y-104675000D02*
X138465000Y-104675000D01*
X140565000Y-83675000D02*
X140965000Y-83675000D01*
X140565000Y-104675000D02*
X140965000Y-104675000D01*
X143065000Y-83675000D02*
X143465000Y-83675000D01*
X143065000Y-104675000D02*
X143465000Y-104675000D01*
X145665000Y-83675000D02*
X146065000Y-83675000D01*
X145665000Y-104675000D02*
X146065000Y-104675000D01*
X148165000Y-83675000D02*
X148565000Y-83675000D01*
X148165000Y-104675000D02*
X148565000Y-104675000D01*
X150765000Y-83675000D02*
X151165000Y-83675000D01*
X150765000Y-104675000D02*
X151165000Y-104675000D01*
X153265000Y-83675000D02*
X153665000Y-83675000D01*
X153265000Y-104675000D02*
X153665000Y-104675000D01*
X155865000Y-83675000D02*
X156265000Y-83675000D01*
X155865000Y-104675000D02*
X156265000Y-104675000D01*
X158365000Y-83675000D02*
X158765000Y-83675000D01*
X158365000Y-104675000D02*
X158765000Y-104675000D01*
X160865000Y-83675000D02*
X161265000Y-83675000D01*
X160865000Y-104675000D02*
X161265000Y-104675000D01*
X163465000Y-83675000D02*
X163865000Y-83675000D01*
X163465000Y-104675000D02*
X163865000Y-104675000D01*
X166265000Y-83675000D02*
X166265000Y-90475000D01*
X166265000Y-93075000D02*
X166265000Y-92675000D01*
X166265000Y-95675000D02*
X166265000Y-95275000D01*
X166265000Y-97875000D02*
X166265000Y-104675000D01*
D15*
X134225000Y-78300000D02*
X135425000Y-78300000D01*
X135775000Y-78450000D02*
X136375000Y-78450000D01*
X135775000Y-81350000D02*
X135775000Y-78450000D01*
X136375000Y-78450000D02*
X136375000Y-81350000D01*
X136375000Y-81350000D02*
X135775000Y-81350000D01*
D14*
X145520000Y-74755000D02*
X163420000Y-74755000D01*
X145520000Y-77355000D02*
X145520000Y-74755000D01*
X145520000Y-79955000D02*
X145520000Y-78625000D01*
X146850000Y-79955000D02*
X145520000Y-79955000D01*
X148120000Y-77355000D02*
X145520000Y-77355000D01*
X148120000Y-79955000D02*
X148120000Y-77355000D01*
X148120000Y-79955000D02*
X163420000Y-79955000D01*
X163420000Y-79955000D02*
X163420000Y-74755000D01*
X128834420Y-78763000D02*
X129115580Y-78763000D01*
X128834420Y-79783000D02*
X129115580Y-79783000D01*
X117825580Y-78763000D02*
X117544420Y-78763000D01*
X117825580Y-79783000D02*
X117544420Y-79783000D01*
X142365000Y-121775000D02*
X145545000Y-121775000D01*
X142365000Y-130925000D02*
X142365000Y-121775000D01*
X142365000Y-130925000D02*
X169265000Y-130925000D01*
X145545000Y-109265000D02*
X146875000Y-109265000D01*
X145545000Y-110375000D02*
X145545000Y-109265000D01*
X145545000Y-115455000D02*
X145765000Y-115455000D01*
X145545000Y-121775000D02*
X145545000Y-115455000D01*
X165765000Y-115455000D02*
X165985000Y-115455000D01*
X165985000Y-121775000D02*
X165985000Y-115455000D01*
X165985000Y-121775000D02*
X169265000Y-121775000D01*
X169265000Y-130925000D02*
X169265000Y-121775000D01*
D15*
X121475000Y-74500000D02*
X125175000Y-74500000D01*
X121475000Y-79500000D02*
X121475000Y-74500000D01*
X125175000Y-74500000D02*
X125175000Y-79500000D01*
X125175000Y-79500000D02*
X121475000Y-79500000D01*
X127000000Y-79525000D02*
X125525000Y-79525000D01*
D13*
G36*
X136108637Y-117185215D02*
G01*
X136162620Y-117271226D01*
X136184318Y-117464576D01*
X136187606Y-117702255D01*
X136181080Y-118001968D01*
X136152409Y-118163918D01*
X136087958Y-118229009D01*
X136008733Y-118238874D01*
X135908829Y-118219294D01*
X135854846Y-118133283D01*
X135833147Y-117939933D01*
X135829860Y-117702255D01*
X135836386Y-117402542D01*
X135865057Y-117240592D01*
X135929507Y-117175500D01*
X136008733Y-117165635D01*
X136108637Y-117185215D01*
G37*
G36*
X135113110Y-113949651D02*
G01*
X135326762Y-113966851D01*
X135433559Y-114006512D01*
X135469480Y-114077629D01*
X135472114Y-114124790D01*
X135535355Y-114274266D01*
X135650987Y-114303663D01*
X135750891Y-114323243D01*
X135804874Y-114409254D01*
X135826571Y-114602604D01*
X135829860Y-114840283D01*
X135823334Y-115139996D01*
X135794663Y-115301945D01*
X135730213Y-115367037D01*
X135650987Y-115376903D01*
X135501510Y-115440144D01*
X135472113Y-115555776D01*
X135408872Y-115705252D01*
X135293240Y-115734649D01*
X135176215Y-115764649D01*
X135124494Y-115885905D01*
X135114366Y-116092396D01*
X135114367Y-116450142D01*
X134577747Y-116450142D01*
X134041127Y-116450142D01*
X134041127Y-116092396D01*
X134026127Y-115858344D01*
X133965499Y-115754902D01*
X133862254Y-115734650D01*
X133712778Y-115671408D01*
X133683381Y-115555776D01*
X133746622Y-115406300D01*
X133862254Y-115376903D01*
X134011730Y-115313661D01*
X134041127Y-115198030D01*
X134398874Y-115198030D01*
X134462115Y-115347505D01*
X134577747Y-115376903D01*
X134727223Y-115313661D01*
X134756620Y-115198029D01*
X134693378Y-115048553D01*
X134577747Y-115019156D01*
X134428271Y-115082397D01*
X134398874Y-115198030D01*
X134041127Y-115198030D01*
X134041127Y-115198029D01*
X133977887Y-115048553D01*
X133862254Y-115019156D01*
X133745229Y-114989156D01*
X133693508Y-114867900D01*
X133683381Y-114661411D01*
X133698381Y-114427359D01*
X133759009Y-114323918D01*
X133862254Y-114303663D01*
X134011730Y-114240422D01*
X134041127Y-114124790D01*
X134056065Y-114035668D01*
X134124865Y-113982254D01*
X134283508Y-113955555D01*
X134567975Y-113946574D01*
X134756620Y-113945917D01*
X135113110Y-113949651D01*
G37*
G36*
X136084240Y-121111376D02*
G01*
X136134878Y-121162727D01*
X136165585Y-121284540D01*
X136181301Y-121506458D01*
X136186971Y-121858124D01*
X136187606Y-122174086D01*
X136189361Y-122627130D01*
X136197920Y-122930953D01*
X136218222Y-123115196D01*
X136255208Y-123209502D01*
X136313819Y-123243511D01*
X136366480Y-123247325D01*
X136437262Y-123256615D01*
X136486420Y-123302806D01*
X136517879Y-123413388D01*
X136535565Y-123615851D01*
X136543407Y-123937683D01*
X136545332Y-124406372D01*
X136545353Y-124499438D01*
X136546680Y-124994918D01*
X136553278Y-125339019D01*
X136569077Y-125559230D01*
X136597999Y-125683038D01*
X136643975Y-125737933D01*
X136710931Y-125751403D01*
X136724226Y-125751550D01*
X136873702Y-125814792D01*
X136903099Y-125930424D01*
X136966341Y-126079900D01*
X137081973Y-126109298D01*
X137231449Y-126172538D01*
X137260846Y-126288170D01*
X137241266Y-126388074D01*
X137155254Y-126442058D01*
X136961905Y-126463755D01*
X136724226Y-126467043D01*
X136424513Y-126460517D01*
X136262564Y-126431846D01*
X136197472Y-126367396D01*
X136187606Y-126288170D01*
X136124364Y-126138694D01*
X136008733Y-126109297D01*
X135859257Y-126046056D01*
X135829860Y-125930424D01*
X135893101Y-125780948D01*
X136008733Y-125751550D01*
X136079516Y-125742262D01*
X136128673Y-125696071D01*
X136160132Y-125585488D01*
X136177819Y-125383025D01*
X136185661Y-125061193D01*
X136187585Y-124592503D01*
X136187606Y-124499437D01*
X136186279Y-124003957D01*
X136179681Y-123659856D01*
X136163883Y-123439646D01*
X136134960Y-123315838D01*
X136088984Y-123260943D01*
X136022028Y-123247473D01*
X136008733Y-123247325D01*
X135933226Y-123236795D01*
X135882588Y-123185445D01*
X135851881Y-123063631D01*
X135836164Y-122841713D01*
X135830495Y-122490049D01*
X135829860Y-122174086D01*
X135831614Y-121721041D01*
X135840173Y-121417218D01*
X135860475Y-121232975D01*
X135897462Y-121138670D01*
X135956073Y-121104660D01*
X136008733Y-121100846D01*
X136084240Y-121111376D01*
G37*
G36*
X132580743Y-121879580D02*
G01*
X132610142Y-121995212D01*
X132546901Y-122144689D01*
X132431268Y-122174086D01*
X132281792Y-122237327D01*
X132252395Y-122352959D01*
X132189154Y-122502436D01*
X132073522Y-122531832D01*
X131956495Y-122561832D01*
X131904776Y-122683088D01*
X131894649Y-122889579D01*
X131909649Y-123123629D01*
X131970277Y-123227071D01*
X132073522Y-123247325D01*
X132190547Y-123277324D01*
X132242268Y-123398581D01*
X132252396Y-123605072D01*
X132267395Y-123839122D01*
X132328023Y-123942564D01*
X132431268Y-123962818D01*
X132548294Y-123992818D01*
X132600014Y-124114073D01*
X132610142Y-124320565D01*
X132625142Y-124554615D01*
X132685770Y-124658057D01*
X132789015Y-124678311D01*
X132906040Y-124708310D01*
X132957761Y-124829567D01*
X132967888Y-125036057D01*
X132952888Y-125270107D01*
X132892260Y-125373549D01*
X132789015Y-125393804D01*
X132639539Y-125457045D01*
X132610142Y-125572677D01*
X132590562Y-125672582D01*
X132504550Y-125726565D01*
X132311201Y-125748262D01*
X132073522Y-125751550D01*
X131773809Y-125745024D01*
X131611860Y-125716353D01*
X131546767Y-125651903D01*
X131536902Y-125572677D01*
X131600143Y-125423201D01*
X131715775Y-125393805D01*
X131865251Y-125330563D01*
X131894649Y-125214931D01*
X131924649Y-125097905D01*
X132045905Y-125046185D01*
X132252395Y-125036057D01*
X132486446Y-125021057D01*
X132589887Y-124960429D01*
X132610142Y-124857184D01*
X132546901Y-124707708D01*
X132431268Y-124678311D01*
X132314243Y-124648311D01*
X132262522Y-124527055D01*
X132252396Y-124320565D01*
X132237395Y-124086514D01*
X132176767Y-123983072D01*
X132073522Y-123962818D01*
X131956496Y-123932818D01*
X131904775Y-123811562D01*
X131894649Y-123605072D01*
X131879648Y-123371021D01*
X131819020Y-123267579D01*
X131715775Y-123247325D01*
X131598750Y-123217325D01*
X131547029Y-123096069D01*
X131536902Y-122889579D01*
X131551902Y-122655528D01*
X131612530Y-122552087D01*
X131715775Y-122531832D01*
X131865251Y-122468591D01*
X131894649Y-122352960D01*
X131957890Y-122203483D01*
X132073522Y-122174086D01*
X132222998Y-122110844D01*
X132252395Y-121995212D01*
X132315636Y-121845736D01*
X132431268Y-121816339D01*
X132580743Y-121879580D01*
G37*
G36*
X134659159Y-117893403D02*
G01*
X134711276Y-117951811D01*
X134740572Y-118088729D01*
X134753524Y-118336532D01*
X134756606Y-118727595D01*
X134756620Y-118775494D01*
X134754165Y-119182554D01*
X134742484Y-119443137D01*
X134715100Y-119589620D01*
X134665540Y-119654378D01*
X134587326Y-119669787D01*
X134577747Y-119669860D01*
X134460723Y-119699861D01*
X134409001Y-119821116D01*
X134398874Y-120027607D01*
X134383873Y-120261658D01*
X134323246Y-120365099D01*
X134220001Y-120385353D01*
X134070525Y-120448595D01*
X134041127Y-120564227D01*
X134011127Y-120681252D01*
X133889871Y-120732972D01*
X133683381Y-120743100D01*
X133449330Y-120728100D01*
X133345889Y-120667472D01*
X133325634Y-120564227D01*
X133262393Y-120414750D01*
X133146761Y-120385353D01*
X133029736Y-120355353D01*
X132978015Y-120234097D01*
X132967888Y-120027607D01*
X132952888Y-119793556D01*
X132892260Y-119690115D01*
X132789015Y-119669860D01*
X132707603Y-119657585D01*
X132655486Y-119599178D01*
X132626191Y-119462259D01*
X132613238Y-119214456D01*
X132612599Y-119133241D01*
X132967889Y-119133241D01*
X133031129Y-119282717D01*
X133146761Y-119312113D01*
X133296237Y-119248873D01*
X133325634Y-119133241D01*
X133355635Y-119016215D01*
X133476891Y-118964495D01*
X133683381Y-118954368D01*
X133917432Y-118969367D01*
X134020873Y-119029996D01*
X134041127Y-119133241D01*
X134104369Y-119282718D01*
X134220001Y-119312114D01*
X134369477Y-119248873D01*
X134398874Y-119133242D01*
X134335632Y-118983764D01*
X134220001Y-118954367D01*
X134070525Y-118891126D01*
X134041127Y-118775494D01*
X134011127Y-118658470D01*
X133889871Y-118606748D01*
X133683381Y-118596621D01*
X133449330Y-118611622D01*
X133345889Y-118672249D01*
X133325634Y-118775494D01*
X133262393Y-118924970D01*
X133146761Y-118954367D01*
X132997284Y-119017609D01*
X132967889Y-119133241D01*
X132612599Y-119133241D01*
X132610155Y-118823393D01*
X132610142Y-118775494D01*
X132612596Y-118368434D01*
X132624279Y-118107851D01*
X132651662Y-117961368D01*
X132701222Y-117896610D01*
X132779435Y-117881201D01*
X132789015Y-117881128D01*
X132938491Y-117944369D01*
X132967888Y-118060001D01*
X132982826Y-118149123D01*
X133051626Y-118202537D01*
X133210269Y-118229236D01*
X133494736Y-118238216D01*
X133683381Y-118238875D01*
X134039870Y-118235140D01*
X134253523Y-118217940D01*
X134360320Y-118178279D01*
X134396241Y-118107162D01*
X134398874Y-118060001D01*
X134462115Y-117910525D01*
X134577747Y-117881128D01*
X134659159Y-117893403D01*
G37*
G36*
X135472113Y-110010705D02*
G01*
X135457113Y-110244757D01*
X135396485Y-110348197D01*
X135293240Y-110368452D01*
X135143764Y-110431693D01*
X135114367Y-110547325D01*
X135051126Y-110696801D01*
X134935494Y-110726198D01*
X134786018Y-110789440D01*
X134756620Y-110905072D01*
X134693378Y-111054548D01*
X134577747Y-111083945D01*
X134428271Y-111147186D01*
X134398874Y-111262818D01*
X134335632Y-111412294D01*
X134220001Y-111441691D01*
X134070525Y-111504933D01*
X134041127Y-111620565D01*
X133977886Y-111770040D01*
X133862254Y-111799438D01*
X133712778Y-111862679D01*
X133683381Y-111978311D01*
X133620139Y-112127787D01*
X133504508Y-112157184D01*
X133355032Y-112220425D01*
X133325634Y-112336057D01*
X133388876Y-112485533D01*
X133504508Y-112514931D01*
X133653984Y-112578172D01*
X133683381Y-112693804D01*
X133620139Y-112843280D01*
X133504508Y-112872677D01*
X133355032Y-112809436D01*
X133325634Y-112693804D01*
X133262393Y-112544328D01*
X133146761Y-112514931D01*
X132997285Y-112578172D01*
X132967888Y-112693804D01*
X132937888Y-112810829D01*
X132816631Y-112862550D01*
X132610142Y-112872677D01*
X132376090Y-112887677D01*
X132272648Y-112948305D01*
X132252395Y-113051551D01*
X132189154Y-113201027D01*
X132073522Y-113230424D01*
X131924046Y-113293665D01*
X131894649Y-113409296D01*
X131831407Y-113558773D01*
X131715775Y-113588170D01*
X131566299Y-113651410D01*
X131536902Y-113767043D01*
X131473661Y-113916519D01*
X131358028Y-113945917D01*
X131208553Y-114009158D01*
X131179156Y-114124789D01*
X131242397Y-114274266D01*
X131358029Y-114303663D01*
X131507505Y-114366904D01*
X131536902Y-114482536D01*
X131600143Y-114632012D01*
X131715775Y-114661410D01*
X131865251Y-114724651D01*
X131894649Y-114840282D01*
X131957890Y-114989759D01*
X132073522Y-115019156D01*
X132222998Y-115082397D01*
X132252396Y-115198029D01*
X132315636Y-115347505D01*
X132431268Y-115376903D01*
X132580744Y-115440144D01*
X132610142Y-115555776D01*
X132673383Y-115705252D01*
X132789015Y-115734649D01*
X132938491Y-115671408D01*
X132967888Y-115555776D01*
X133031129Y-115406300D01*
X133146761Y-115376903D01*
X133263787Y-115406903D01*
X133315507Y-115528159D01*
X133325634Y-115734649D01*
X133340635Y-115968700D01*
X133401263Y-116072142D01*
X133504508Y-116092396D01*
X133621533Y-116122396D01*
X133673254Y-116243652D01*
X133683381Y-116450142D01*
X133668381Y-116684194D01*
X133607753Y-116787634D01*
X133504508Y-116807888D01*
X133387481Y-116777888D01*
X133335762Y-116656632D01*
X133325634Y-116450142D01*
X133325634Y-116092396D01*
X132967889Y-116092396D01*
X132733837Y-116077395D01*
X132630396Y-116016767D01*
X132610142Y-115913522D01*
X132546901Y-115764046D01*
X132431268Y-115734650D01*
X132281792Y-115671408D01*
X132252395Y-115555776D01*
X132189154Y-115406300D01*
X132073522Y-115376903D01*
X131924046Y-115313661D01*
X131894649Y-115198029D01*
X131831407Y-115048553D01*
X131715775Y-115019156D01*
X131566299Y-114955915D01*
X131536902Y-114840283D01*
X131473661Y-114690806D01*
X131358028Y-114661410D01*
X131208553Y-114598168D01*
X131179156Y-114482536D01*
X131115914Y-114333060D01*
X131000282Y-114303663D01*
X130850806Y-114240422D01*
X130821409Y-114124790D01*
X130884650Y-113975314D01*
X131000282Y-113945917D01*
X131149758Y-113882675D01*
X131179156Y-113767043D01*
X131242397Y-113617567D01*
X131358029Y-113588170D01*
X131507505Y-113524929D01*
X131536902Y-113409297D01*
X131600143Y-113259821D01*
X131715775Y-113230424D01*
X131865251Y-113167182D01*
X131894649Y-113051550D01*
X131957890Y-112902074D01*
X132073522Y-112872677D01*
X132190547Y-112842677D01*
X132242268Y-112721421D01*
X132252395Y-112514931D01*
X132263859Y-112336057D01*
X132610142Y-112336057D01*
X132673384Y-112485534D01*
X132789015Y-112514931D01*
X132938491Y-112451689D01*
X132967888Y-112336057D01*
X132904647Y-112186581D01*
X132789015Y-112157184D01*
X132639539Y-112220425D01*
X132610142Y-112336057D01*
X132263859Y-112336057D01*
X132267395Y-112280880D01*
X132328023Y-112177439D01*
X132431268Y-112157184D01*
X132580744Y-112093943D01*
X132610142Y-111978312D01*
X132546900Y-111828835D01*
X132431268Y-111799438D01*
X132281792Y-111736198D01*
X132252396Y-111620565D01*
X132315636Y-111471088D01*
X132431268Y-111441691D01*
X132580744Y-111504933D01*
X132610142Y-111620565D01*
X132673384Y-111770041D01*
X132789015Y-111799438D01*
X132938491Y-111736197D01*
X132967889Y-111620565D01*
X133031129Y-111471088D01*
X133146761Y-111441691D01*
X133296237Y-111378450D01*
X133325634Y-111262818D01*
X133388876Y-111113342D01*
X133504508Y-111083945D01*
X133653984Y-111020704D01*
X133683382Y-110905072D01*
X133746622Y-110755595D01*
X133862254Y-110726198D01*
X134011730Y-110662957D01*
X134041127Y-110547325D01*
X134104369Y-110397849D01*
X134220001Y-110368452D01*
X134369477Y-110305211D01*
X134398874Y-110189580D01*
X134462115Y-110040103D01*
X134577747Y-110010705D01*
X134727223Y-109947464D01*
X134756620Y-109831832D01*
X134786621Y-109714808D01*
X134907876Y-109663086D01*
X135114367Y-109652959D01*
X135472113Y-109652958D01*
X135472113Y-110010705D01*
G37*
G36*
X136515956Y-115797890D02*
G01*
X136545352Y-115913522D01*
X136608594Y-116062998D01*
X136724226Y-116092396D01*
X136873702Y-116155637D01*
X136903099Y-116271269D01*
X136839858Y-116420745D01*
X136724226Y-116450142D01*
X136574750Y-116513383D01*
X136545352Y-116629015D01*
X136608594Y-116778491D01*
X136724226Y-116807888D01*
X136841251Y-116837889D01*
X136892972Y-116959145D01*
X136903099Y-117165636D01*
X136918099Y-117399686D01*
X136978727Y-117503126D01*
X137081973Y-117523381D01*
X137231449Y-117586624D01*
X137260846Y-117702255D01*
X137324087Y-117851731D01*
X137439719Y-117881128D01*
X137539623Y-117900708D01*
X137593606Y-117986719D01*
X137615304Y-118180069D01*
X137618592Y-118417748D01*
X137618592Y-118954367D01*
X136545352Y-118954367D01*
X135472113Y-118954367D01*
X135472113Y-119490987D01*
X135465587Y-119790700D01*
X135436916Y-119952649D01*
X135372466Y-120017741D01*
X135293240Y-120027607D01*
X135176215Y-120057607D01*
X135124494Y-120178863D01*
X135114366Y-120385353D01*
X135129367Y-120619404D01*
X135189995Y-120722844D01*
X135293240Y-120743100D01*
X135442716Y-120679858D01*
X135472113Y-120564227D01*
X135535355Y-120414750D01*
X135650987Y-120385353D01*
X135768012Y-120355353D01*
X135819733Y-120234097D01*
X135829860Y-120027607D01*
X135844860Y-119793556D01*
X135905488Y-119690115D01*
X136008733Y-119669860D01*
X136158209Y-119606619D01*
X136187606Y-119490987D01*
X136250848Y-119341511D01*
X136366480Y-119312113D01*
X136515956Y-119375355D01*
X136545353Y-119490987D01*
X136482112Y-119640463D01*
X136366480Y-119669860D01*
X136217003Y-119733102D01*
X136187606Y-119848734D01*
X136250847Y-119998210D01*
X136366480Y-120027606D01*
X136515956Y-120090848D01*
X136545353Y-120206480D01*
X136482112Y-120355956D01*
X136366480Y-120385353D01*
X136217003Y-120448595D01*
X136187606Y-120564227D01*
X136157606Y-120681252D01*
X136036349Y-120732973D01*
X135829860Y-120743100D01*
X135595808Y-120758100D01*
X135492368Y-120818728D01*
X135472113Y-120921974D01*
X135408872Y-121071449D01*
X135293240Y-121100846D01*
X135143764Y-121037605D01*
X135114367Y-120921973D01*
X135051126Y-120772497D01*
X134935494Y-120743100D01*
X134786018Y-120806341D01*
X134756621Y-120921973D01*
X134693379Y-121071449D01*
X134577747Y-121100846D01*
X134428271Y-121164087D01*
X134398874Y-121279719D01*
X134335633Y-121429196D01*
X134220001Y-121458593D01*
X134070525Y-121521834D01*
X134041127Y-121637466D01*
X134011127Y-121754491D01*
X133889871Y-121806212D01*
X133683381Y-121816338D01*
X133449330Y-121801339D01*
X133345889Y-121740711D01*
X133325634Y-121637466D01*
X133262393Y-121487990D01*
X133146761Y-121458593D01*
X132997285Y-121395351D01*
X132967888Y-121279719D01*
X132904647Y-121130243D01*
X132789015Y-121100846D01*
X132639539Y-121037605D01*
X132610142Y-120921974D01*
X132546900Y-120772497D01*
X132431268Y-120743100D01*
X132314243Y-120713099D01*
X132262522Y-120591844D01*
X132252396Y-120385353D01*
X132237395Y-120151304D01*
X132176767Y-120047862D01*
X132073522Y-120027607D01*
X132009931Y-120019982D01*
X131963517Y-119980918D01*
X131931580Y-119886131D01*
X131911424Y-119711336D01*
X131900349Y-119432249D01*
X131895657Y-119024585D01*
X131894889Y-118596621D01*
X132252395Y-118596621D01*
X132254151Y-119049665D01*
X132262708Y-119353488D01*
X132283011Y-119537731D01*
X132319997Y-119632038D01*
X132378608Y-119666046D01*
X132431268Y-119669860D01*
X132548294Y-119699861D01*
X132600014Y-119821116D01*
X132610142Y-120027606D01*
X132625142Y-120261658D01*
X132685770Y-120365099D01*
X132789015Y-120385353D01*
X132938491Y-120448595D01*
X132967889Y-120564227D01*
X133031129Y-120713703D01*
X133146761Y-120743100D01*
X133296237Y-120806341D01*
X133325634Y-120921973D01*
X133355635Y-121038998D01*
X133476891Y-121090719D01*
X133683381Y-121100845D01*
X133917432Y-121085846D01*
X134020873Y-121025217D01*
X134041127Y-120921973D01*
X134104369Y-120772497D01*
X134220001Y-120743100D01*
X134369477Y-120679858D01*
X134398874Y-120564226D01*
X134462115Y-120414750D01*
X134577747Y-120385353D01*
X134694773Y-120355353D01*
X134746493Y-120234097D01*
X134756620Y-120027606D01*
X134771621Y-119793556D01*
X134832248Y-119690115D01*
X134935494Y-119669860D01*
X135011001Y-119659330D01*
X135061638Y-119607980D01*
X135092345Y-119486166D01*
X135108063Y-119264248D01*
X135113731Y-118912583D01*
X135114367Y-118596621D01*
X135114367Y-117523381D01*
X134756620Y-117523381D01*
X134522570Y-117538382D01*
X134419128Y-117599009D01*
X134398874Y-117702255D01*
X134383936Y-117791377D01*
X134315136Y-117844790D01*
X134156493Y-117871489D01*
X133872026Y-117880470D01*
X133683381Y-117881128D01*
X133326892Y-117877393D01*
X133113239Y-117860193D01*
X133006442Y-117820533D01*
X132970520Y-117749416D01*
X132967888Y-117702255D01*
X132937888Y-117585229D01*
X132816632Y-117533509D01*
X132610142Y-117523381D01*
X132252395Y-117523381D01*
X132252395Y-118596621D01*
X131894889Y-118596621D01*
X131894651Y-118464063D01*
X131894649Y-118417748D01*
X131894649Y-117523381D01*
X131894649Y-116807888D01*
X132431268Y-116807888D01*
X132730982Y-116814415D01*
X132892930Y-116843086D01*
X132958023Y-116907535D01*
X132967888Y-116986762D01*
X132982825Y-117075884D01*
X133051626Y-117129297D01*
X133210269Y-117155996D01*
X133494736Y-117164977D01*
X133683381Y-117165635D01*
X134039870Y-117161901D01*
X134253523Y-117144701D01*
X134360320Y-117105040D01*
X134396241Y-117033923D01*
X134398874Y-116986762D01*
X134418454Y-116886857D01*
X134504466Y-116832874D01*
X134697815Y-116811177D01*
X134935494Y-116807888D01*
X135472113Y-116807888D01*
X135472113Y-117702255D01*
X135472114Y-118596621D01*
X136366480Y-118596620D01*
X137260846Y-118596621D01*
X137260846Y-118238874D01*
X137245846Y-118004824D01*
X137185218Y-117901382D01*
X137081972Y-117881128D01*
X136932496Y-117817887D01*
X136903099Y-117702255D01*
X136839858Y-117552779D01*
X136724226Y-117523381D01*
X136607201Y-117493380D01*
X136555480Y-117372125D01*
X136545353Y-117165635D01*
X136530353Y-116931584D01*
X136469725Y-116828143D01*
X136366480Y-116807888D01*
X136217003Y-116744647D01*
X136187606Y-116629015D01*
X136124364Y-116479539D01*
X136008733Y-116450142D01*
X135859257Y-116386901D01*
X135829860Y-116271269D01*
X135893101Y-116121793D01*
X136008733Y-116092396D01*
X136158209Y-116029154D01*
X136187606Y-115913522D01*
X136250847Y-115764046D01*
X136366480Y-115734650D01*
X136515956Y-115797890D01*
G37*
D14*
X117897258Y-74502500D02*
X117422742Y-74502500D01*
X117897258Y-75547500D02*
X117422742Y-75547500D01*
%LPC*%
D16*
X133025000Y-79248000D03*
X131475000Y-79248000D03*
D17*
X125645000Y-125700000D03*
D18*
X139165000Y-74470000D03*
X140715000Y-74470000D03*
D19*
X134825000Y-74425000D03*
X134825000Y-75375000D03*
X134825000Y-76325000D03*
X137325000Y-76325000D03*
X137325000Y-75375000D03*
X137325000Y-74425000D03*
D20*
X177480000Y-78715000D03*
X177480000Y-80265000D03*
D21*
X173850000Y-79820000D03*
X173849999Y-77520000D03*
D22*
X167550001Y-77520000D03*
D21*
X173850000Y-75220000D03*
D16*
X133000000Y-74475000D03*
X131450000Y-74475000D03*
D20*
X177480000Y-74675000D03*
X177480000Y-76225000D03*
D18*
X139165000Y-79010000D03*
X140715000Y-79010000D03*
D23*
X116765000Y-96900000D03*
D24*
X119795000Y-96600000D03*
X119795000Y-91750000D03*
D23*
X116765000Y-91450000D03*
D25*
X116635000Y-103065000D03*
D26*
X116635000Y-103965000D03*
D25*
X119175000Y-103065000D03*
D26*
X119175000Y-103965000D03*
D27*
X121715000Y-103065000D03*
D26*
X121715000Y-103965000D03*
D25*
X124255000Y-103065000D03*
D26*
X124255000Y-103965000D03*
D25*
X126795000Y-103065000D03*
D26*
X126795000Y-103965000D03*
D25*
X129335000Y-103065000D03*
D26*
X129335000Y-103965000D03*
D25*
X131875000Y-103065000D03*
D26*
X131875000Y-103965000D03*
D27*
X134415000Y-103065000D03*
D26*
X134415000Y-103965000D03*
D25*
X136955000Y-103065000D03*
D26*
X136955000Y-103965000D03*
D25*
X139495000Y-103065000D03*
D26*
X139495000Y-103965000D03*
D25*
X142035000Y-103065000D03*
D26*
X142035000Y-103965000D03*
D25*
X144575000Y-103065000D03*
D26*
X144575000Y-103965000D03*
D27*
X147115000Y-103065000D03*
D26*
X147115000Y-103965000D03*
D25*
X149655000Y-103065000D03*
D26*
X149655000Y-103965000D03*
D25*
X152195000Y-103065000D03*
D26*
X152195000Y-103965000D03*
D25*
X154735000Y-103065000D03*
D26*
X154735000Y-103965000D03*
D25*
X157275000Y-103065000D03*
D26*
X157275000Y-103965000D03*
D27*
X159815000Y-103065000D03*
D26*
X159815000Y-103965000D03*
D25*
X162355000Y-103065000D03*
D26*
X162355000Y-103965000D03*
D25*
X164895000Y-103065000D03*
D26*
X164895000Y-103965000D03*
D25*
X164895000Y-85285000D03*
D26*
X164895000Y-84385000D03*
D25*
X162355000Y-85285000D03*
D26*
X162355000Y-84385000D03*
D27*
X159815000Y-85285000D03*
D26*
X159815000Y-84385000D03*
D25*
X157275000Y-85285000D03*
D26*
X157275000Y-84385000D03*
D25*
X154735000Y-85285000D03*
D26*
X154735000Y-84385000D03*
D25*
X152195000Y-85285000D03*
D26*
X152195000Y-84385000D03*
D25*
X149655000Y-85285000D03*
D26*
X149655000Y-84385000D03*
D27*
X147115000Y-85285000D03*
D26*
X147115000Y-84385000D03*
D25*
X144575000Y-85285000D03*
D26*
X144575000Y-84385000D03*
D25*
X142035000Y-85285000D03*
D26*
X142035000Y-84385000D03*
D25*
X139495000Y-85285000D03*
D26*
X139495000Y-84385000D03*
D25*
X136955000Y-85285000D03*
D26*
X136955000Y-84385000D03*
D27*
X134415000Y-85285000D03*
D26*
X134415000Y-84385000D03*
D25*
X131875000Y-85285000D03*
D26*
X131875000Y-84385000D03*
D25*
X129335000Y-85285000D03*
D26*
X129335000Y-84385000D03*
D25*
X126795000Y-85285000D03*
D26*
X126795000Y-84385000D03*
D25*
X124255000Y-85285000D03*
D26*
X124255000Y-84385000D03*
D27*
X121715000Y-85285000D03*
D26*
X121715000Y-84385000D03*
D25*
X119175000Y-85285000D03*
D26*
X119175000Y-84385000D03*
D25*
X116635000Y-85285000D03*
D26*
X116635000Y-84385000D03*
D25*
X164665000Y-96715000D03*
D27*
X164665000Y-94175000D03*
D25*
X164665000Y-91635000D03*
D19*
X134825000Y-78950000D03*
X134825000Y-79900000D03*
X134825000Y-80850000D03*
X137325000Y-80850000D03*
X137325000Y-79900000D03*
X137325000Y-78950000D03*
D27*
X146850000Y-78625000D03*
D25*
X146850000Y-76085000D03*
X149390000Y-78625000D03*
X149390000Y-76085000D03*
X151930000Y-78625000D03*
X151930000Y-76085000D03*
X154470000Y-78625000D03*
X154470000Y-76085000D03*
X157010000Y-78625000D03*
X157010000Y-76085000D03*
X159550000Y-78625000D03*
X159550000Y-76085000D03*
X162090000Y-78625000D03*
X162090000Y-76085000D03*
D18*
X128200000Y-79273000D03*
X129750000Y-79273000D03*
D16*
X118460000Y-79273000D03*
X116910000Y-79273000D03*
D27*
X146875000Y-110375000D03*
D25*
X146875000Y-115455000D03*
X149415000Y-110375000D03*
X149415000Y-115455000D03*
X151955000Y-110375000D03*
X151955000Y-115455000D03*
X154495000Y-110375000D03*
X154495000Y-115455000D03*
X157035000Y-110375000D03*
X157035000Y-115455000D03*
X159575000Y-110375000D03*
X159575000Y-115455000D03*
X162115000Y-110375000D03*
X162115000Y-115455000D03*
X164655000Y-110375000D03*
X164655000Y-115455000D03*
D28*
X126263000Y-78950000D03*
X126263000Y-78300000D03*
X126263000Y-77650000D03*
X126263000Y-77000000D03*
X126263000Y-76350000D03*
X126263000Y-75700000D03*
X126263000Y-75050000D03*
X120387000Y-75050000D03*
X120387000Y-75700000D03*
X120387000Y-76350000D03*
X120387000Y-77000000D03*
X120387000Y-77650000D03*
X120387000Y-78300000D03*
X120387000Y-78950000D03*
D17*
X172100000Y-92125000D03*
D29*
X118485000Y-75025000D03*
X116835000Y-75025000D03*
%LPD*%
M02*
